<svg version="1.1" fill-rule="evenodd" clip-rule="evenodd" fill="white" xmlns="http://www.w3.org/2000/svg" x="0" y="0" viewBox="0 0 1366 1366" style="enable-background:new 0 0 1366 1366" xml:space="preserve">
	<path d="M780.73 943.12c8.98-17.14 37.55-87.34 37.55-109.38 38.37-13.06 72.65-29.39 102.85-50.61 66.12 42.45 122.44 55.51 166.52 33.47 33.47-24.49 51.43-63.67 48.16-125.71-7.35-19.59-18.77-35.1-41.63-54.69 6.53-17.14 9.8-40 8.98-67.75-.82-13.06-12.24-17.14-18.77 0-9.8 22.04-22.04 37.55-36.73 45.71-69.38-56.32-107.75-67.75-135.5-62.85 37.55-33.47 79.18-35.92 112.65-101.22 19.59 19.59 30.2 44.9 43.26 71.83 8.98 7.35 14.69 4.9 17.14-7.35-.82-34.28-13.06-66.12-39.18-95.5 7.35-5.71 12.24-13.06 14.69-22.04 6.53 11.43 18.77 15.51 23.67 27.75 18.77-33.47 19.59-78.36 7.35-114.28 0-14.69-4.08-29.39-8.98-44.08 0-22.86-4.9-40-18.77-45.71-75.91-22.04-155.91-31.02-248.15-9.8-69.39-10.61-116.74-45.71-208.16-31.01-32.65 5.71-70.2 22.86-110.2 44.08-169.79-6.53-458.75 373.86-293.04 510.17-8.16 18.77-18.77 35.92-32.65 51.43-5.71 11.43-8.16 22.04-6.53 32.65 10.61 9.8 86.53-3.27 129.79-4.9 62.04 49.79 76.73 113.46 106.93 169.79 131.42 183.66 654.65 87.34 811.38-155.91-159.17 195.91-519.15 274.27-732.2 88.16-22.86-47.34-48.98-94.69-94.69-147.75 10.61-2.45 21.22-5.71 30.2-9.8 18.77 12.24 43.26 15.51 71.02 14.69-18.77-13.88-31.02-28.57-35.92-44.08 13.88-16.33 22.86-37.55 26.94-63.67-93.06 76.74-164.08 124.9-222.03 111.84-8.98-3.27-13.06-9.8-5.71-22.86 11.43-15.51 13.88-49.79 17.96-64.49.82-27.75-8.16-84.89-4.08-103.67-1.63-4.9 5.71-31.83 17.96-64.49 5.71 30.2 16.33 52.24 32.65 66.93-11.43-34.28-13.88-73.47-13.06-114.28 4.9-11.43 9.8-22.04 14.69-31.83 14.69 41.63 41.63 72.65 78.36 94.69-19.59-40.81-30.2-91.42-26.12-157.54 33.47-24.49 57.14-44.08 79.18-59.59 10.61 48.98 28.57 81.63 51.43 106.12-11.43-44.08-16.33-88.97-5.71-135.5 31.02-15.51 69.38-25.3 133.87-32.65 62.04-3.27 83.26 21.22 146.11 19.59 94.69-6.53 191.83-31.83 254.68-21.22-12.24 16.33-13.06 30.2-5.71 41.63-15.51 5.71-35.1 4.9-56.32 0 13.88 8.16 31.83 12.24 56.32 10.61 17.96-.82 34.28-5.71 47.34 0 11.43 16.33 10.61 26.94 8.16 57.14-4.08 5.71-14.69 10.61-29.39 13.88-56.32 47.34-95.5 80.81-144.48 95.5-13.88-.82-28.57-6.53-43.26-23.67 8.16 35.1-8.98 87.34-61.22 166.52 1.63 19.59-1.63 44.08 11.43 66.12 8.98 16.33 32.65 29.39 45.71 47.34 14.69 15.51 23.67 23.67 44.9 35.1-13.06 14.69-43.26 22.04-62.85 27.75-31.83 6.53-48.98 7.35-57.14 4.08 12.23 57.15 3.25 118.37-1.65 145.31zm71.02-275.9c48.98 20.41 108.57 57.14 147.75 59.59 15.51-4.08 28.57-11.43 34.28-26.94 19.59-13.88 36.73-22.04 58.77-42.45 9.8.82 6.53 29.39 10.61 44.08 4.9-13.06 6.53-26.12 3.27-40-.82-9.8-7.35-14.69-19.59-12.24-22.86-1.63-38.36-8.98-43.26-23.67-48.16-44.9-93.87-66.12-138.77-66.12-27.76 19.59-44.09 57.95-53.06 107.75zm237.53 11.42c-22.86 13.88-38.37 31.83-56.32 52.24 8.16 12.24 26.12 20.41 49.79 0 1.63-12.24 13.06-39.18 6.53-52.24z"/>
	<path d="M519.52 531.71c56.32-73.46 115.91-58.77 177.95 5.71-8.98-22.86-19.59-45.71-39.18-71.83 4.08-13.88 9.8-26.94 23.67-37.55 45.71 11.43 69.38 0 66.93-44.08 3.27-6.53 16.33-13.06 34.28-18.77-14.69-.82-27.75 2.45-42.45 5.71-14.69-5.71-26.94-8.16-44.08-2.45-12.24 10.61-22.86 44.08-17.14 53.87-14.69 8.98-26.94 23.67-33.47 38.37-81.61-8.97-106.92 28.58-126.51 71.02zm180.4-159.17c23.67 3.27 33.47 18.77 30.2 42.45-8.98 8.98-23.67 12.24-41.63 9.8-3.27-.82-5.71-3.26-5.71-8.16.81-17.15 7.34-31.85 17.14-44.09zM500.75 728.44c20.41 57.14 31.02 113.46 21.22 168.97 60.4 40 119.99 49.79 178.76 34.28 28.57-32.65 45.71-83.26 57.96-142.85-17.96 53.87-40 94.69-66.93 112.65-67.75-4.9-113.46-22.86-131.42-53.87-14.7-51.43-34.29-91.43-59.59-119.18zM279.53 869.65c17.14 31.02 35.92 88.97 57.14 183.66 233.46 119.99 438.34 85.71 628.53 10.61-214.68 158.36-444.87 153.46-684.04 43.26 11.43-76.72 11.43-155.9-1.63-237.53z"/>
	<path d="M562.78 544.77c7.35 55.51 38.37 119.99 73.46 157.54 65.3-22.86 111.83-118.36 164.07-221.21-29.39 125.71-76.73 226.11-153.46 285.7-70.19-6.53-86.52-99.58-84.07-222.03z"/>
	<path d="M684.41-.5C1060.71-.5 1366 304.79 1366 681.09c0 377.12-305.29 682.41-681.59 682.41C307.29 1363.5 2 1058.21 2 681.09 2 304.79 307.29-.5 684.41-.5zm0 69.38c337.94 0 612.21 274.27 612.21 612.21 0 171.42-71.02 326.51-184.48 437.52l43.26 26.12h-71.02c-106.93 93.06-247.33 148.56-399.98 148.56-337.94 0-612.21-273.45-612.21-612.21 0-142.85 48.98-275.09 131.42-379.57l-47.34-27.75h71.02C339.94 148.06 502.38 68.88 684.41 68.88z"/>
</svg>