<?xml version="1.0" encoding="utf-8"?>
<!-- Generator: Adobe Illustrator 25.3.0, SVG Export Plug-In . SVG Version: 6.00 Build 0)  -->
<svg version="1.1" id="Capa_1" xmlns="http://www.w3.org/2000/svg" xmlns:xlink="http://www.w3.org/1999/xlink" x="0px" y="0px"
	 viewBox="0 0 1366 1366" style="enable-background:new 0 0 1366 1366;" xml:space="preserve">
<style type="text/css">
	.st0{clip-path:url(#SVGID_2_);fill-rule:evenodd;clip-rule:evenodd;fill:#7D7E7E;}
	.st1{clip-path:url(#SVGID_2_);fill-rule:evenodd;clip-rule:evenodd;fill:#7E7F7F;}
	.st2{clip-path:url(#SVGID_2_);fill-rule:evenodd;clip-rule:evenodd;fill:#7F8080;}
	.st3{clip-path:url(#SVGID_2_);fill-rule:evenodd;clip-rule:evenodd;fill:#808080;}
	.st4{clip-path:url(#SVGID_2_);fill-rule:evenodd;clip-rule:evenodd;fill:#808181;}
	.st5{clip-path:url(#SVGID_2_);fill-rule:evenodd;clip-rule:evenodd;fill:#818282;}
	.st6{clip-path:url(#SVGID_2_);fill-rule:evenodd;clip-rule:evenodd;fill:#828383;}
	.st7{clip-path:url(#SVGID_2_);fill-rule:evenodd;clip-rule:evenodd;fill:#838484;}
	.st8{clip-path:url(#SVGID_2_);fill-rule:evenodd;clip-rule:evenodd;fill:#848585;}
	.st9{clip-path:url(#SVGID_2_);fill-rule:evenodd;clip-rule:evenodd;fill:#858585;}
	.st10{clip-path:url(#SVGID_2_);fill-rule:evenodd;clip-rule:evenodd;fill:#858686;}
	.st11{clip-path:url(#SVGID_2_);fill-rule:evenodd;clip-rule:evenodd;fill:#868787;}
	.st12{clip-path:url(#SVGID_2_);fill-rule:evenodd;clip-rule:evenodd;fill:#878888;}
	.st13{clip-path:url(#SVGID_2_);fill-rule:evenodd;clip-rule:evenodd;fill:#888989;}
	.st14{clip-path:url(#SVGID_2_);fill-rule:evenodd;clip-rule:evenodd;fill:#898989;}
	.st15{clip-path:url(#SVGID_2_);fill-rule:evenodd;clip-rule:evenodd;fill:#898A8A;}
	.st16{clip-path:url(#SVGID_2_);fill-rule:evenodd;clip-rule:evenodd;fill:#8A8A8A;}
	.st17{clip-path:url(#SVGID_2_);fill-rule:evenodd;clip-rule:evenodd;fill:#8A8B8B;}
	.st18{clip-path:url(#SVGID_2_);fill-rule:evenodd;clip-rule:evenodd;fill:#8B8C8C;}
	.st19{clip-path:url(#SVGID_2_);fill-rule:evenodd;clip-rule:evenodd;fill:#8C8D8D;}
	.st20{clip-path:url(#SVGID_2_);fill-rule:evenodd;clip-rule:evenodd;fill:#8D8D8D;}
	.st21{clip-path:url(#SVGID_2_);fill-rule:evenodd;clip-rule:evenodd;fill:#8D8E8E;}
	.st22{clip-path:url(#SVGID_2_);fill-rule:evenodd;clip-rule:evenodd;fill:#8E8E8E;}
	.st23{clip-path:url(#SVGID_2_);fill-rule:evenodd;clip-rule:evenodd;fill:#8E8F8F;}
	.st24{clip-path:url(#SVGID_2_);fill-rule:evenodd;clip-rule:evenodd;fill:#8F8F8F;}
	.st25{clip-path:url(#SVGID_2_);fill-rule:evenodd;clip-rule:evenodd;fill:#8F9090;}
	.st26{clip-path:url(#SVGID_2_);fill-rule:evenodd;clip-rule:evenodd;fill:#909191;}
	.st27{clip-path:url(#SVGID_2_);fill-rule:evenodd;clip-rule:evenodd;fill:#919292;}
	.st28{clip-path:url(#SVGID_2_);fill-rule:evenodd;clip-rule:evenodd;fill:#929292;}
	.st29{clip-path:url(#SVGID_2_);fill-rule:evenodd;clip-rule:evenodd;fill:#929393;}
	.st30{clip-path:url(#SVGID_2_);fill-rule:evenodd;clip-rule:evenodd;fill:#939393;}
	.st31{clip-path:url(#SVGID_2_);fill-rule:evenodd;clip-rule:evenodd;fill:#939494;}
	.st32{clip-path:url(#SVGID_2_);fill-rule:evenodd;clip-rule:evenodd;fill:#949494;}
	.st33{clip-path:url(#SVGID_2_);fill-rule:evenodd;clip-rule:evenodd;fill:#949595;}
	.st34{clip-path:url(#SVGID_2_);fill-rule:evenodd;clip-rule:evenodd;fill:#959696;}
	.st35{clip-path:url(#SVGID_2_);fill-rule:evenodd;clip-rule:evenodd;fill:#969696;}
	.st36{clip-path:url(#SVGID_2_);fill-rule:evenodd;clip-rule:evenodd;fill:#969797;}
	.st37{clip-path:url(#SVGID_2_);fill-rule:evenodd;clip-rule:evenodd;fill:#979797;}
	.st38{clip-path:url(#SVGID_2_);fill-rule:evenodd;clip-rule:evenodd;fill:#979898;}
	.st39{clip-path:url(#SVGID_2_);fill-rule:evenodd;clip-rule:evenodd;fill:#989898;}
	.st40{clip-path:url(#SVGID_2_);fill-rule:evenodd;clip-rule:evenodd;fill:#989999;}
	.st41{clip-path:url(#SVGID_2_);fill-rule:evenodd;clip-rule:evenodd;fill:#999999;}
	.st42{clip-path:url(#SVGID_2_);fill-rule:evenodd;clip-rule:evenodd;fill:#999A9A;}
	.st43{clip-path:url(#SVGID_2_);fill-rule:evenodd;clip-rule:evenodd;fill:#9A9A9A;}
	.st44{clip-path:url(#SVGID_2_);fill-rule:evenodd;clip-rule:evenodd;fill:#9A9B9B;}
	.st45{clip-path:url(#SVGID_2_);fill-rule:evenodd;clip-rule:evenodd;fill:#9B9B9B;}
	.st46{clip-path:url(#SVGID_2_);fill-rule:evenodd;clip-rule:evenodd;fill:#9B9C9C;}
	.st47{clip-path:url(#SVGID_2_);fill-rule:evenodd;clip-rule:evenodd;fill:#9C9C9C;}
	.st48{clip-path:url(#SVGID_2_);fill-rule:evenodd;clip-rule:evenodd;fill:#9C9D9D;}
	.st49{clip-path:url(#SVGID_2_);fill-rule:evenodd;clip-rule:evenodd;fill:#9D9D9D;}
	.st50{clip-path:url(#SVGID_2_);fill-rule:evenodd;clip-rule:evenodd;fill:#9D9E9E;}
	.st51{clip-path:url(#SVGID_2_);fill-rule:evenodd;clip-rule:evenodd;fill:#9E9E9E;}
	.st52{clip-path:url(#SVGID_2_);fill-rule:evenodd;clip-rule:evenodd;fill:#9E9F9F;}
	.st53{clip-path:url(#SVGID_2_);fill-rule:evenodd;clip-rule:evenodd;fill:#9F9F9F;}
	.st54{clip-path:url(#SVGID_2_);fill-rule:evenodd;clip-rule:evenodd;fill:#9FA0A0;}
	.st55{clip-path:url(#SVGID_2_);fill-rule:evenodd;clip-rule:evenodd;fill:#A0A0A0;}
	.st56{clip-path:url(#SVGID_2_);fill-rule:evenodd;clip-rule:evenodd;fill:#A0A1A1;}
	.st57{clip-path:url(#SVGID_2_);fill-rule:evenodd;clip-rule:evenodd;fill:#A1A1A1;}
	.st58{clip-path:url(#SVGID_2_);fill-rule:evenodd;clip-rule:evenodd;fill:#A1A2A2;}
	.st59{clip-path:url(#SVGID_2_);fill-rule:evenodd;clip-rule:evenodd;fill:#A2A2A2;}
	.st60{clip-path:url(#SVGID_2_);fill-rule:evenodd;clip-rule:evenodd;fill:#A2A3A3;}
	.st61{clip-path:url(#SVGID_2_);fill-rule:evenodd;clip-rule:evenodd;fill:#A3A3A3;}
	.st62{clip-path:url(#SVGID_2_);fill-rule:evenodd;clip-rule:evenodd;fill:#A3A4A4;}
	.st63{clip-path:url(#SVGID_2_);fill-rule:evenodd;clip-rule:evenodd;fill:#A4A4A4;}
	.st64{clip-path:url(#SVGID_2_);fill-rule:evenodd;clip-rule:evenodd;fill:#A4A5A5;}
	.st65{clip-path:url(#SVGID_2_);fill-rule:evenodd;clip-rule:evenodd;fill:#A5A5A5;}
	.st66{clip-path:url(#SVGID_2_);fill-rule:evenodd;clip-rule:evenodd;fill:#A5A6A6;}
	.st67{clip-path:url(#SVGID_2_);fill-rule:evenodd;clip-rule:evenodd;fill:#A6A6A6;}
	.st68{clip-path:url(#SVGID_2_);fill-rule:evenodd;clip-rule:evenodd;fill:#A6A7A7;}
	.st69{clip-path:url(#SVGID_2_);fill-rule:evenodd;clip-rule:evenodd;fill:#A7A7A7;}
	.st70{clip-path:url(#SVGID_2_);fill-rule:evenodd;clip-rule:evenodd;fill:#A7A8A8;}
	.st71{clip-path:url(#SVGID_2_);fill-rule:evenodd;clip-rule:evenodd;fill:#A8A8A8;}
	.st72{clip-path:url(#SVGID_2_);fill-rule:evenodd;clip-rule:evenodd;fill:#A8A9A9;}
	.st73{clip-path:url(#SVGID_2_);fill-rule:evenodd;clip-rule:evenodd;fill:#A9A9A9;}
	.st74{clip-path:url(#SVGID_2_);fill-rule:evenodd;clip-rule:evenodd;fill:#A9AAAA;}
	.st75{clip-path:url(#SVGID_2_);fill-rule:evenodd;clip-rule:evenodd;fill:#AAAAAA;}
	.st76{clip-path:url(#SVGID_2_);fill-rule:evenodd;clip-rule:evenodd;fill:#AAABAB;}
	.st77{clip-path:url(#SVGID_2_);fill-rule:evenodd;clip-rule:evenodd;fill:#ABABAB;}
	.st78{clip-path:url(#SVGID_2_);fill-rule:evenodd;clip-rule:evenodd;fill:#ABACAC;}
	.st79{clip-path:url(#SVGID_2_);fill-rule:evenodd;clip-rule:evenodd;fill:#ACACAC;}
	.st80{clip-path:url(#SVGID_2_);fill-rule:evenodd;clip-rule:evenodd;fill:#ACADAD;}
	.st81{clip-path:url(#SVGID_2_);fill-rule:evenodd;clip-rule:evenodd;fill:#ADADAD;}
	.st82{clip-path:url(#SVGID_2_);fill-rule:evenodd;clip-rule:evenodd;fill:#ADAEAE;}
	.st83{clip-path:url(#SVGID_2_);fill-rule:evenodd;clip-rule:evenodd;fill:#AEAEAE;}
	.st84{clip-path:url(#SVGID_2_);fill-rule:evenodd;clip-rule:evenodd;fill:#AEAFAF;}
	.st85{clip-path:url(#SVGID_2_);fill-rule:evenodd;clip-rule:evenodd;fill:#AFAFAF;}
	.st86{clip-path:url(#SVGID_2_);fill-rule:evenodd;clip-rule:evenodd;fill:#AFB0B0;}
	.st87{clip-path:url(#SVGID_2_);fill-rule:evenodd;clip-rule:evenodd;fill:#B0B0B0;}
	.st88{clip-path:url(#SVGID_2_);fill-rule:evenodd;clip-rule:evenodd;fill:#B0B1B1;}
	.st89{clip-path:url(#SVGID_2_);fill-rule:evenodd;clip-rule:evenodd;fill:#B1B1B1;}
	.st90{clip-path:url(#SVGID_2_);fill-rule:evenodd;clip-rule:evenodd;fill:#B1B2B2;}
	.st91{clip-path:url(#SVGID_2_);fill-rule:evenodd;clip-rule:evenodd;fill:#B2B2B2;}
	.st92{clip-path:url(#SVGID_2_);fill-rule:evenodd;clip-rule:evenodd;fill:#B2B3B3;}
	.st93{clip-path:url(#SVGID_2_);fill-rule:evenodd;clip-rule:evenodd;fill:#B3B3B3;}
	.st94{clip-path:url(#SVGID_2_);fill-rule:evenodd;clip-rule:evenodd;fill:#B3B4B4;}
	.st95{clip-path:url(#SVGID_2_);fill-rule:evenodd;clip-rule:evenodd;fill:#B4B4B4;}
	.st96{clip-path:url(#SVGID_2_);fill-rule:evenodd;clip-rule:evenodd;fill:#B4B5B5;}
	.st97{clip-path:url(#SVGID_2_);fill-rule:evenodd;clip-rule:evenodd;fill:#B5B5B5;}
	.st98{clip-path:url(#SVGID_2_);fill-rule:evenodd;clip-rule:evenodd;fill:#B5B6B6;}
	.st99{clip-path:url(#SVGID_2_);fill-rule:evenodd;clip-rule:evenodd;fill:#B6B6B6;}
	.st100{clip-path:url(#SVGID_2_);fill-rule:evenodd;clip-rule:evenodd;fill:#B6B7B7;}
	.st101{clip-path:url(#SVGID_2_);fill-rule:evenodd;clip-rule:evenodd;fill:#B7B7B7;}
	.st102{clip-path:url(#SVGID_2_);fill-rule:evenodd;clip-rule:evenodd;fill:#B7B8B8;}
	.st103{clip-path:url(#SVGID_2_);fill-rule:evenodd;clip-rule:evenodd;fill:#B8B8B8;}
	.st104{clip-path:url(#SVGID_2_);fill-rule:evenodd;clip-rule:evenodd;fill:#B8B9B9;}
	.st105{clip-path:url(#SVGID_2_);fill-rule:evenodd;clip-rule:evenodd;fill:#B9B9B9;}
	.st106{clip-path:url(#SVGID_2_);fill-rule:evenodd;clip-rule:evenodd;fill:#B9BABA;}
	.st107{clip-path:url(#SVGID_2_);fill-rule:evenodd;clip-rule:evenodd;fill:#BABABA;}
	.st108{clip-path:url(#SVGID_2_);fill-rule:evenodd;clip-rule:evenodd;fill:#BABBBB;}
	.st109{clip-path:url(#SVGID_2_);fill-rule:evenodd;clip-rule:evenodd;fill:#BBBBBB;}
	.st110{clip-path:url(#SVGID_2_);fill-rule:evenodd;clip-rule:evenodd;fill:#BBBCBC;}
	.st111{clip-path:url(#SVGID_2_);fill-rule:evenodd;clip-rule:evenodd;fill:#BCBCBC;}
	.st112{clip-path:url(#SVGID_2_);fill-rule:evenodd;clip-rule:evenodd;fill:#BCBDBD;}
	.st113{clip-path:url(#SVGID_2_);fill-rule:evenodd;clip-rule:evenodd;fill:#BDBDBD;}
	.st114{clip-path:url(#SVGID_2_);fill-rule:evenodd;clip-rule:evenodd;fill:#BDBEBE;}
	.st115{clip-path:url(#SVGID_2_);fill-rule:evenodd;clip-rule:evenodd;fill:#BEBEBE;}
	.st116{clip-path:url(#SVGID_2_);fill-rule:evenodd;clip-rule:evenodd;fill:#BEBFBF;}
	.st117{clip-path:url(#SVGID_2_);fill-rule:evenodd;clip-rule:evenodd;fill:#BFBFBF;}
	.st118{clip-path:url(#SVGID_2_);fill-rule:evenodd;clip-rule:evenodd;fill:#BFC0C0;}
	.st119{clip-path:url(#SVGID_2_);fill-rule:evenodd;clip-rule:evenodd;fill:#C0C0C0;}
	.st120{clip-path:url(#SVGID_2_);fill-rule:evenodd;clip-rule:evenodd;fill:#C0C1C1;}
	.st121{clip-path:url(#SVGID_2_);fill-rule:evenodd;clip-rule:evenodd;fill:#C1C1C1;}
	.st122{clip-path:url(#SVGID_2_);fill-rule:evenodd;clip-rule:evenodd;fill:#C2C2C2;}
	.st123{clip-path:url(#SVGID_2_);fill-rule:evenodd;clip-rule:evenodd;fill:#C2C3C3;}
	.st124{clip-path:url(#SVGID_2_);fill-rule:evenodd;clip-rule:evenodd;fill:#C3C3C3;}
	.st125{clip-path:url(#SVGID_2_);fill-rule:evenodd;clip-rule:evenodd;fill:#C3C4C4;}
	.st126{clip-path:url(#SVGID_2_);fill-rule:evenodd;clip-rule:evenodd;fill:#C4C4C4;}
	.st127{clip-path:url(#SVGID_2_);fill-rule:evenodd;clip-rule:evenodd;fill:#C4C5C5;}
	.st128{clip-path:url(#SVGID_2_);fill-rule:evenodd;clip-rule:evenodd;fill:#C5C5C5;}
	.st129{clip-path:url(#SVGID_2_);fill-rule:evenodd;clip-rule:evenodd;fill:#C6C6C6;}
	.st130{clip-path:url(#SVGID_2_);fill-rule:evenodd;clip-rule:evenodd;fill:#C7C7C7;}
	.st131{clip-path:url(#SVGID_2_);fill-rule:evenodd;clip-rule:evenodd;fill:#C7C8C8;}
	.st132{clip-path:url(#SVGID_2_);fill-rule:evenodd;clip-rule:evenodd;fill:#C8C8C8;}
	.st133{clip-path:url(#SVGID_2_);fill-rule:evenodd;clip-rule:evenodd;fill:#C8C9C9;}
	.st134{clip-path:url(#SVGID_2_);fill-rule:evenodd;clip-rule:evenodd;fill:#C9C9C9;}
	.st135{clip-path:url(#SVGID_2_);fill-rule:evenodd;clip-rule:evenodd;fill:#C9CACA;}
	.st136{clip-path:url(#SVGID_2_);fill-rule:evenodd;clip-rule:evenodd;fill:#CACACA;}
	.st137{clip-path:url(#SVGID_2_);fill-rule:evenodd;clip-rule:evenodd;fill:#CBCBCB;}
	.st138{clip-path:url(#SVGID_2_);fill-rule:evenodd;clip-rule:evenodd;fill:#CCCCCC;}
	.st139{clip-path:url(#SVGID_2_);fill-rule:evenodd;clip-rule:evenodd;fill:#CCCDCD;}
	.st140{clip-path:url(#SVGID_2_);fill-rule:evenodd;clip-rule:evenodd;fill:#CDCDCD;}
	.st141{clip-path:url(#SVGID_2_);fill-rule:evenodd;clip-rule:evenodd;fill:#CDCECE;}
	.st142{clip-path:url(#SVGID_2_);fill-rule:evenodd;clip-rule:evenodd;fill:#CECECE;}
	.st143{clip-path:url(#SVGID_2_);fill-rule:evenodd;clip-rule:evenodd;fill:#CFCFCF;}
	.st144{clip-path:url(#SVGID_2_);fill-rule:evenodd;clip-rule:evenodd;fill:#D0D0D0;}
	.st145{clip-path:url(#SVGID_2_);fill-rule:evenodd;clip-rule:evenodd;fill:#D1D1D1;}
	.st146{clip-path:url(#SVGID_2_);fill-rule:evenodd;clip-rule:evenodd;fill:#D1D2D2;}
	.st147{clip-path:url(#SVGID_2_);fill-rule:evenodd;clip-rule:evenodd;fill:#D2D2D2;}
	.st148{clip-path:url(#SVGID_2_);fill-rule:evenodd;clip-rule:evenodd;fill:#D3D3D3;}
	.st149{clip-path:url(#SVGID_2_);fill-rule:evenodd;clip-rule:evenodd;fill:#D4D4D4;}
	.st150{clip-path:url(#SVGID_2_);fill-rule:evenodd;clip-rule:evenodd;fill:#D5D5D5;}
	.st151{clip-path:url(#SVGID_2_);fill-rule:evenodd;clip-rule:evenodd;fill:#D6D6D6;}
	.st152{clip-path:url(#SVGID_2_);fill-rule:evenodd;clip-rule:evenodd;fill:#D6D7D7;}
	.st153{clip-path:url(#SVGID_2_);fill-rule:evenodd;clip-rule:evenodd;fill:#D7D7D7;}
	.st154{clip-path:url(#SVGID_2_);fill-rule:evenodd;clip-rule:evenodd;fill:#D8D8D8;}
	.st155{clip-path:url(#SVGID_4_);fill-rule:evenodd;clip-rule:evenodd;fill:#C2C2C2;}
	.st156{clip-path:url(#SVGID_4_);fill-rule:evenodd;clip-rule:evenodd;fill:#C3C3C3;}
	.st157{clip-path:url(#SVGID_4_);fill-rule:evenodd;clip-rule:evenodd;fill:#C4C4C4;}
	.st158{clip-path:url(#SVGID_4_);fill-rule:evenodd;clip-rule:evenodd;fill:#C5C5C5;}
	.st159{clip-path:url(#SVGID_4_);fill-rule:evenodd;clip-rule:evenodd;fill:#C6C6C6;}
	.st160{clip-path:url(#SVGID_4_);fill-rule:evenodd;clip-rule:evenodd;fill:#C7C7C7;}
	.st161{clip-path:url(#SVGID_4_);fill-rule:evenodd;clip-rule:evenodd;fill:#C8C8C8;}
	.st162{clip-path:url(#SVGID_4_);fill-rule:evenodd;clip-rule:evenodd;fill:#C9C9C9;}
	.st163{clip-path:url(#SVGID_4_);fill-rule:evenodd;clip-rule:evenodd;fill:#CACACA;}
	.st164{clip-path:url(#SVGID_4_);fill-rule:evenodd;clip-rule:evenodd;fill:#CBCBCB;}
	.st165{clip-path:url(#SVGID_4_);fill-rule:evenodd;clip-rule:evenodd;fill:#CCCCCC;}
	.st166{clip-path:url(#SVGID_4_);fill-rule:evenodd;clip-rule:evenodd;fill:#CDCDCD;}
	.st167{clip-path:url(#SVGID_4_);fill-rule:evenodd;clip-rule:evenodd;fill:#CECECE;}
	.st168{clip-path:url(#SVGID_4_);fill-rule:evenodd;clip-rule:evenodd;fill:#CFCFCF;}
	.st169{clip-path:url(#SVGID_4_);fill-rule:evenodd;clip-rule:evenodd;fill:#D0D0D0;}
	.st170{clip-path:url(#SVGID_4_);fill-rule:evenodd;clip-rule:evenodd;fill:#D1D1D1;}
	.st171{clip-path:url(#SVGID_4_);fill-rule:evenodd;clip-rule:evenodd;fill:#D2D2D2;}
	.st172{clip-path:url(#SVGID_4_);fill-rule:evenodd;clip-rule:evenodd;fill:#D3D3D3;}
	.st173{clip-path:url(#SVGID_4_);fill-rule:evenodd;clip-rule:evenodd;fill:#D4D4D4;}
	.st174{clip-path:url(#SVGID_4_);fill-rule:evenodd;clip-rule:evenodd;fill:#D5D5D5;}
	.st175{clip-path:url(#SVGID_4_);fill-rule:evenodd;clip-rule:evenodd;fill:#D6D6D6;}
	.st176{clip-path:url(#SVGID_4_);fill-rule:evenodd;clip-rule:evenodd;fill:#D7D7D7;}
	.st177{clip-path:url(#SVGID_4_);fill-rule:evenodd;clip-rule:evenodd;fill:#D8D8D8;}
	.st178{clip-path:url(#SVGID_4_);fill-rule:evenodd;clip-rule:evenodd;fill:#D9D9D9;}
	.st179{clip-path:url(#SVGID_4_);fill-rule:evenodd;clip-rule:evenodd;fill:#DADADA;}
	.st180{clip-path:url(#SVGID_4_);fill-rule:evenodd;clip-rule:evenodd;fill:#DBDBDB;}
	.st181{clip-path:url(#SVGID_4_);fill-rule:evenodd;clip-rule:evenodd;fill:#DCDCDC;}
	.st182{clip-path:url(#SVGID_4_);fill-rule:evenodd;clip-rule:evenodd;fill:#DDDDDD;}
	.st183{clip-path:url(#SVGID_4_);fill-rule:evenodd;clip-rule:evenodd;fill:#DEDEDE;}
	.st184{clip-path:url(#SVGID_4_);fill-rule:evenodd;clip-rule:evenodd;fill:#DFDFDF;}
	.st185{clip-path:url(#SVGID_4_);fill-rule:evenodd;clip-rule:evenodd;fill:#E0E0E0;}
	.st186{clip-path:url(#SVGID_4_);fill-rule:evenodd;clip-rule:evenodd;fill:#E1E1E1;}
	.st187{clip-path:url(#SVGID_4_);fill-rule:evenodd;clip-rule:evenodd;fill:#E2E2E2;}
	.st188{clip-path:url(#SVGID_4_);fill-rule:evenodd;clip-rule:evenodd;fill:#E3E3E3;}
	.st189{clip-path:url(#SVGID_4_);fill-rule:evenodd;clip-rule:evenodd;fill:#E4E4E4;}
	.st190{clip-path:url(#SVGID_4_);fill-rule:evenodd;clip-rule:evenodd;fill:#E5E5E5;}
	.st191{clip-path:url(#SVGID_4_);fill-rule:evenodd;clip-rule:evenodd;fill:#E6E6E6;}
	.st192{clip-path:url(#SVGID_4_);fill-rule:evenodd;clip-rule:evenodd;fill:#E7E7E7;}
	.st193{clip-path:url(#SVGID_4_);fill-rule:evenodd;clip-rule:evenodd;fill:#E8E8E8;}
	.st194{clip-path:url(#SVGID_4_);fill-rule:evenodd;clip-rule:evenodd;fill:#E9E9E9;}
	.st195{clip-path:url(#SVGID_4_);fill-rule:evenodd;clip-rule:evenodd;fill:#EAEAEA;}
	.st196{clip-path:url(#SVGID_4_);fill-rule:evenodd;clip-rule:evenodd;fill:#EBEBEB;}
	.st197{clip-path:url(#SVGID_4_);fill-rule:evenodd;clip-rule:evenodd;fill:#ECECEC;}
	.st198{clip-path:url(#SVGID_4_);fill-rule:evenodd;clip-rule:evenodd;fill:#EDEDED;}
	.st199{clip-path:url(#SVGID_4_);fill-rule:evenodd;clip-rule:evenodd;fill:#EEEEEE;}
	.st200{clip-path:url(#SVGID_4_);fill-rule:evenodd;clip-rule:evenodd;fill:#EFEFEF;}
	.st201{clip-path:url(#SVGID_4_);fill-rule:evenodd;clip-rule:evenodd;fill:#F0F0F0;}
	.st202{clip-path:url(#SVGID_4_);fill-rule:evenodd;clip-rule:evenodd;fill:#F1F1F1;}
	.st203{clip-path:url(#SVGID_4_);fill-rule:evenodd;clip-rule:evenodd;fill:#F2F2F2;}
	.st204{clip-path:url(#SVGID_4_);fill-rule:evenodd;clip-rule:evenodd;fill:#F3F3F3;}
	.st205{clip-path:url(#SVGID_4_);fill-rule:evenodd;clip-rule:evenodd;fill:#F4F4F4;}
	.st206{clip-path:url(#SVGID_4_);fill-rule:evenodd;clip-rule:evenodd;fill:#F5F5F5;}
	.st207{clip-path:url(#SVGID_4_);fill-rule:evenodd;clip-rule:evenodd;fill:#F6F6F6;}
	.st208{clip-path:url(#SVGID_4_);fill-rule:evenodd;clip-rule:evenodd;fill:#F7F7F7;}
	.st209{clip-path:url(#SVGID_4_);fill-rule:evenodd;clip-rule:evenodd;fill:#F8F8F8;}
	.st210{clip-path:url(#SVGID_4_);fill-rule:evenodd;clip-rule:evenodd;fill:#F9F9F9;}
	.st211{clip-path:url(#SVGID_4_);fill-rule:evenodd;clip-rule:evenodd;fill:#FAFAFA;}
	.st212{clip-path:url(#SVGID_4_);fill-rule:evenodd;clip-rule:evenodd;fill:#FBFBFB;}
	.st213{clip-path:url(#SVGID_4_);fill-rule:evenodd;clip-rule:evenodd;fill:#FCFCFC;}
	.st214{clip-path:url(#SVGID_4_);fill-rule:evenodd;clip-rule:evenodd;fill:#FDFDFD;}
	.st215{clip-path:url(#SVGID_4_);fill-rule:evenodd;clip-rule:evenodd;fill:#FEFEFE;}
	.st216{clip-path:url(#SVGID_4_);fill-rule:evenodd;clip-rule:evenodd;fill:#FFFFFF;}
	.st217{fill:#220D26;}
	.st218{fill-rule:evenodd;clip-rule:evenodd;fill:#220D26;}
</style>
<g>
	<path class="st218" d="M780.73,943.12c8.98-17.14,37.55-87.34,37.55-109.38c38.37-13.06,72.65-29.39,102.85-50.61
		c66.12,42.45,122.44,55.51,166.52,33.47c33.47-24.49,51.43-63.67,48.16-125.71c-7.35-19.59-18.77-35.1-41.63-54.69
		c6.53-17.14,9.8-40,8.98-67.75c-0.82-13.06-12.24-17.14-18.77,0c-9.8,22.04-22.04,37.55-36.73,45.71
		c-69.38-56.32-107.75-67.75-135.5-62.85c37.55-33.47,79.18-35.92,112.65-101.22c19.59,19.59,30.2,44.9,43.26,71.83
		c8.98,7.35,14.69,4.9,17.14-7.35c-0.82-34.28-13.06-66.12-39.18-95.5c7.35-5.71,12.24-13.06,14.69-22.04
		c6.53,11.43,18.77,15.51,23.67,27.75c18.77-33.47,19.59-78.36,7.35-114.28c0-14.69-4.08-29.39-8.98-44.08
		c0-22.86-4.9-40-18.77-45.71c-75.91-22.04-155.91-31.02-248.15-9.8C746.45,200.3,699.1,165.2,607.68,179.9
		c-32.65,5.71-70.2,22.86-110.2,44.08c-169.79-6.53-458.75,373.86-293.04,510.17c-8.16,18.77-18.77,35.92-32.65,51.43
		c-5.71,11.43-8.16,22.04-6.53,32.65c10.61,9.8,86.53-3.27,129.79-4.9c62.04,49.79,76.73,113.46,106.93,169.79
		c131.42,183.66,654.65,87.34,811.38-155.91c-159.17,195.91-519.15,274.27-732.2,88.16c-22.86-47.34-48.98-94.69-94.69-147.75
		c10.61-2.45,21.22-5.71,30.2-9.8c18.77,12.24,43.26,15.51,71.02,14.69c-18.77-13.88-31.02-28.57-35.92-44.08
		c13.88-16.33,22.86-37.55,26.94-63.67C385.65,741.5,314.63,789.66,256.68,776.6c-8.98-3.27-13.06-9.8-5.71-22.86
		c11.43-15.51,13.88-49.79,17.96-64.49c0.82-27.75-8.16-84.89-4.08-103.67c-1.63-4.9,5.71-31.83,17.96-64.49
		c5.71,30.2,16.33,52.24,32.65,66.93c-11.43-34.28-13.88-73.47-13.06-114.28c4.9-11.43,9.8-22.04,14.69-31.83
		c14.69,41.63,41.63,72.65,78.36,94.69c-19.59-40.81-30.2-91.42-26.12-157.54c33.47-24.49,57.14-44.08,79.18-59.59
		c10.61,48.98,28.57,81.63,51.43,106.12c-11.43-44.08-16.33-88.97-5.71-135.5c31.02-15.51,69.38-25.3,133.87-32.65
		c62.04-3.27,83.26,21.22,146.11,19.59c94.69-6.53,191.83-31.83,254.68-21.22c-12.24,16.33-13.06,30.2-5.71,41.63
		c-15.51,5.71-35.1,4.9-56.32,0c13.88,8.16,31.83,12.24,56.32,10.61c17.96-0.82,34.28-5.71,47.34,0
		c11.43,16.33,10.61,26.94,8.16,57.14c-4.08,5.71-14.69,10.61-29.39,13.88c-56.32,47.34-95.5,80.81-144.48,95.5
		c-13.88-0.82-28.57-6.53-43.26-23.67c8.16,35.1-8.98,87.34-61.22,166.52c1.63,19.59-1.63,44.08,11.43,66.12
		c8.98,16.33,32.65,29.39,45.71,47.34c14.69,15.51,23.67,23.67,44.9,35.1c-13.06,14.69-43.26,22.04-62.85,27.75
		c-31.83,6.53-48.98,7.35-57.14,4.08C794.61,854.96,785.63,916.18,780.73,943.12L780.73,943.12z M851.75,667.22
		c48.98,20.41,108.57,57.14,147.75,59.59c15.51-4.08,28.57-11.43,34.28-26.94c19.59-13.88,36.73-22.04,58.77-42.45
		c9.8,0.82,6.53,29.39,10.61,44.08c4.9-13.06,6.53-26.12,3.27-40c-0.82-9.8-7.35-14.69-19.59-12.24
		c-22.86-1.63-38.36-8.98-43.26-23.67c-48.16-44.9-93.87-66.12-138.77-66.12C877.05,579.06,860.72,617.42,851.75,667.22
		L851.75,667.22z M1089.28,678.64c-22.86,13.88-38.37,31.83-56.32,52.24c8.16,12.24,26.12,20.41,49.79,0
		C1084.38,718.64,1095.81,691.7,1089.28,678.64L1089.28,678.64z"/>
	<path class="st218" d="M519.52,531.71c56.32-73.46,115.91-58.77,177.95,5.71c-8.98-22.86-19.59-45.71-39.18-71.83
		c4.08-13.88,9.8-26.94,23.67-37.55c45.71,11.43,69.38,0,66.93-44.08c3.27-6.53,16.33-13.06,34.28-18.77
		c-14.69-0.82-27.75,2.45-42.45,5.71c-14.69-5.71-26.94-8.16-44.08-2.45c-12.24,10.61-22.86,44.08-17.14,53.87
		c-14.69,8.98-26.94,23.67-33.47,38.37C564.42,451.72,539.11,489.27,519.52,531.71L519.52,531.71z M699.92,372.54
		c23.67,3.27,33.47,18.77,30.2,42.45c-8.98,8.98-23.67,12.24-41.63,9.8c-3.27-0.82-5.71-3.26-5.71-8.16
		C683.59,399.48,690.12,384.78,699.92,372.54L699.92,372.54z"/>
	<path class="st218" d="M500.75,728.44c20.41,57.14,31.02,113.46,21.22,168.97c60.4,40,119.99,49.79,178.76,34.28
		c28.57-32.65,45.71-83.26,57.96-142.85c-17.96,53.87-40,94.69-66.93,112.65c-67.75-4.9-113.46-22.86-131.42-53.87
		C545.64,796.19,526.05,756.19,500.75,728.44L500.75,728.44z"/>
	<path class="st218" d="M279.53,869.65c17.14,31.02,35.92,88.97,57.14,183.66c233.46,119.99,438.34,85.71,628.53,10.61
		c-214.68,158.36-444.87,153.46-684.04,43.26C292.59,1030.46,292.59,951.28,279.53,869.65L279.53,869.65z"/>
	<path class="st218" d="M562.78,544.77c7.35,55.51,38.37,119.99,73.46,157.54c65.3-22.86,111.83-118.36,164.07-221.21
		c-29.39,125.71-76.73,226.11-153.46,285.7C576.66,760.27,560.33,667.22,562.78,544.77L562.78,544.77z"/>
	<path class="st218" d="M684.41-0.5c376.3,0,681.59,305.29,681.59,681.59c0,377.12-305.29,682.41-681.59,682.41
		C307.29,1363.5,2,1058.21,2,681.09C2,304.79,307.29-0.5,684.41-0.5L684.41-0.5z M684.41,68.88
		c337.94,0,612.21,274.27,612.21,612.21c0,171.42-71.02,326.51-184.48,437.52l43.26,26.12h-71.02l0,0
		c-106.93,93.06-247.33,148.56-399.98,148.56c-337.94,0-612.21-273.45-612.21-612.21c0-142.85,48.98-275.09,131.42-379.57
		l-47.34-27.75h71.02l0,0C339.94,148.06,502.38,68.88,684.41,68.88L684.41,68.88z"/>
</g>
</svg>
