<?xml version="1.0" encoding="utf-8"?>
<!-- Generator: Adobe Illustrator 25.3.0, SVG Export Plug-In . SVG Version: 6.00 Build 0)  -->
<svg version="1.1" id="Capa_1" xmlns="http://www.w3.org/2000/svg" xmlns:xlink="http://www.w3.org/1999/xlink" x="0px" y="0px"
	 viewBox="0 0 1366 768" style="enable-background:new 0 0 1366 768;" xml:space="preserve">
<style type="text/css">
	.st0{clip-path:url(#SVGID_2_);fill-rule:evenodd;clip-rule:evenodd;fill:#7D7E7E;}
	.st1{clip-path:url(#SVGID_2_);fill-rule:evenodd;clip-rule:evenodd;fill:#7E7F7F;}
	.st2{clip-path:url(#SVGID_2_);fill-rule:evenodd;clip-rule:evenodd;fill:#7F8080;}
	.st3{clip-path:url(#SVGID_2_);fill-rule:evenodd;clip-rule:evenodd;fill:#808080;}
	.st4{clip-path:url(#SVGID_2_);fill-rule:evenodd;clip-rule:evenodd;fill:#808181;}
	.st5{clip-path:url(#SVGID_2_);fill-rule:evenodd;clip-rule:evenodd;fill:#818282;}
	.st6{clip-path:url(#SVGID_2_);fill-rule:evenodd;clip-rule:evenodd;fill:#828383;}
	.st7{clip-path:url(#SVGID_2_);fill-rule:evenodd;clip-rule:evenodd;fill:#838484;}
	.st8{clip-path:url(#SVGID_2_);fill-rule:evenodd;clip-rule:evenodd;fill:#848585;}
	.st9{clip-path:url(#SVGID_2_);fill-rule:evenodd;clip-rule:evenodd;fill:#858585;}
	.st10{clip-path:url(#SVGID_2_);fill-rule:evenodd;clip-rule:evenodd;fill:#858686;}
	.st11{clip-path:url(#SVGID_2_);fill-rule:evenodd;clip-rule:evenodd;fill:#868787;}
	.st12{clip-path:url(#SVGID_2_);fill-rule:evenodd;clip-rule:evenodd;fill:#878888;}
	.st13{clip-path:url(#SVGID_2_);fill-rule:evenodd;clip-rule:evenodd;fill:#888989;}
	.st14{clip-path:url(#SVGID_2_);fill-rule:evenodd;clip-rule:evenodd;fill:#898989;}
	.st15{clip-path:url(#SVGID_2_);fill-rule:evenodd;clip-rule:evenodd;fill:#898A8A;}
	.st16{clip-path:url(#SVGID_2_);fill-rule:evenodd;clip-rule:evenodd;fill:#8A8A8A;}
	.st17{clip-path:url(#SVGID_2_);fill-rule:evenodd;clip-rule:evenodd;fill:#8A8B8B;}
	.st18{clip-path:url(#SVGID_2_);fill-rule:evenodd;clip-rule:evenodd;fill:#8B8C8C;}
	.st19{clip-path:url(#SVGID_2_);fill-rule:evenodd;clip-rule:evenodd;fill:#8C8D8D;}
	.st20{clip-path:url(#SVGID_2_);fill-rule:evenodd;clip-rule:evenodd;fill:#8D8D8D;}
	.st21{clip-path:url(#SVGID_2_);fill-rule:evenodd;clip-rule:evenodd;fill:#8D8E8E;}
	.st22{clip-path:url(#SVGID_2_);fill-rule:evenodd;clip-rule:evenodd;fill:#8E8E8E;}
	.st23{clip-path:url(#SVGID_2_);fill-rule:evenodd;clip-rule:evenodd;fill:#8E8F8F;}
	.st24{clip-path:url(#SVGID_2_);fill-rule:evenodd;clip-rule:evenodd;fill:#8F8F8F;}
	.st25{clip-path:url(#SVGID_2_);fill-rule:evenodd;clip-rule:evenodd;fill:#8F9090;}
	.st26{clip-path:url(#SVGID_2_);fill-rule:evenodd;clip-rule:evenodd;fill:#909191;}
	.st27{clip-path:url(#SVGID_2_);fill-rule:evenodd;clip-rule:evenodd;fill:#919292;}
	.st28{clip-path:url(#SVGID_2_);fill-rule:evenodd;clip-rule:evenodd;fill:#929292;}
	.st29{clip-path:url(#SVGID_2_);fill-rule:evenodd;clip-rule:evenodd;fill:#929393;}
	.st30{clip-path:url(#SVGID_2_);fill-rule:evenodd;clip-rule:evenodd;fill:#939393;}
	.st31{clip-path:url(#SVGID_2_);fill-rule:evenodd;clip-rule:evenodd;fill:#939494;}
	.st32{clip-path:url(#SVGID_2_);fill-rule:evenodd;clip-rule:evenodd;fill:#949494;}
	.st33{clip-path:url(#SVGID_2_);fill-rule:evenodd;clip-rule:evenodd;fill:#949595;}
	.st34{clip-path:url(#SVGID_2_);fill-rule:evenodd;clip-rule:evenodd;fill:#959696;}
	.st35{clip-path:url(#SVGID_2_);fill-rule:evenodd;clip-rule:evenodd;fill:#969696;}
	.st36{clip-path:url(#SVGID_2_);fill-rule:evenodd;clip-rule:evenodd;fill:#969797;}
	.st37{clip-path:url(#SVGID_2_);fill-rule:evenodd;clip-rule:evenodd;fill:#979797;}
	.st38{clip-path:url(#SVGID_2_);fill-rule:evenodd;clip-rule:evenodd;fill:#979898;}
	.st39{clip-path:url(#SVGID_2_);fill-rule:evenodd;clip-rule:evenodd;fill:#989898;}
	.st40{clip-path:url(#SVGID_2_);fill-rule:evenodd;clip-rule:evenodd;fill:#989999;}
	.st41{clip-path:url(#SVGID_2_);fill-rule:evenodd;clip-rule:evenodd;fill:#999999;}
	.st42{clip-path:url(#SVGID_2_);fill-rule:evenodd;clip-rule:evenodd;fill:#999A9A;}
	.st43{clip-path:url(#SVGID_2_);fill-rule:evenodd;clip-rule:evenodd;fill:#9A9A9A;}
	.st44{clip-path:url(#SVGID_2_);fill-rule:evenodd;clip-rule:evenodd;fill:#9A9B9B;}
	.st45{clip-path:url(#SVGID_2_);fill-rule:evenodd;clip-rule:evenodd;fill:#9B9B9B;}
	.st46{clip-path:url(#SVGID_2_);fill-rule:evenodd;clip-rule:evenodd;fill:#9B9C9C;}
	.st47{clip-path:url(#SVGID_2_);fill-rule:evenodd;clip-rule:evenodd;fill:#9C9C9C;}
	.st48{clip-path:url(#SVGID_2_);fill-rule:evenodd;clip-rule:evenodd;fill:#9C9D9D;}
	.st49{clip-path:url(#SVGID_2_);fill-rule:evenodd;clip-rule:evenodd;fill:#9D9D9D;}
	.st50{clip-path:url(#SVGID_2_);fill-rule:evenodd;clip-rule:evenodd;fill:#9D9E9E;}
	.st51{clip-path:url(#SVGID_2_);fill-rule:evenodd;clip-rule:evenodd;fill:#9E9E9E;}
	.st52{clip-path:url(#SVGID_2_);fill-rule:evenodd;clip-rule:evenodd;fill:#9E9F9F;}
	.st53{clip-path:url(#SVGID_2_);fill-rule:evenodd;clip-rule:evenodd;fill:#9F9F9F;}
	.st54{clip-path:url(#SVGID_2_);fill-rule:evenodd;clip-rule:evenodd;fill:#9FA0A0;}
	.st55{clip-path:url(#SVGID_2_);fill-rule:evenodd;clip-rule:evenodd;fill:#A0A0A0;}
	.st56{clip-path:url(#SVGID_2_);fill-rule:evenodd;clip-rule:evenodd;fill:#A0A1A1;}
	.st57{clip-path:url(#SVGID_2_);fill-rule:evenodd;clip-rule:evenodd;fill:#A1A1A1;}
	.st58{clip-path:url(#SVGID_2_);fill-rule:evenodd;clip-rule:evenodd;fill:#A1A2A2;}
	.st59{clip-path:url(#SVGID_2_);fill-rule:evenodd;clip-rule:evenodd;fill:#A2A2A2;}
	.st60{clip-path:url(#SVGID_2_);fill-rule:evenodd;clip-rule:evenodd;fill:#A2A3A3;}
	.st61{clip-path:url(#SVGID_2_);fill-rule:evenodd;clip-rule:evenodd;fill:#A3A3A3;}
	.st62{clip-path:url(#SVGID_2_);fill-rule:evenodd;clip-rule:evenodd;fill:#A3A4A4;}
	.st63{clip-path:url(#SVGID_2_);fill-rule:evenodd;clip-rule:evenodd;fill:#A4A4A4;}
	.st64{clip-path:url(#SVGID_2_);fill-rule:evenodd;clip-rule:evenodd;fill:#A4A5A5;}
	.st65{clip-path:url(#SVGID_2_);fill-rule:evenodd;clip-rule:evenodd;fill:#A5A5A5;}
	.st66{clip-path:url(#SVGID_2_);fill-rule:evenodd;clip-rule:evenodd;fill:#A5A6A6;}
	.st67{clip-path:url(#SVGID_2_);fill-rule:evenodd;clip-rule:evenodd;fill:#A6A6A6;}
	.st68{clip-path:url(#SVGID_2_);fill-rule:evenodd;clip-rule:evenodd;fill:#A6A7A7;}
	.st69{clip-path:url(#SVGID_2_);fill-rule:evenodd;clip-rule:evenodd;fill:#A7A7A7;}
	.st70{clip-path:url(#SVGID_2_);fill-rule:evenodd;clip-rule:evenodd;fill:#A7A8A8;}
	.st71{clip-path:url(#SVGID_2_);fill-rule:evenodd;clip-rule:evenodd;fill:#A8A8A8;}
	.st72{clip-path:url(#SVGID_2_);fill-rule:evenodd;clip-rule:evenodd;fill:#A8A9A9;}
	.st73{clip-path:url(#SVGID_2_);fill-rule:evenodd;clip-rule:evenodd;fill:#A9A9A9;}
	.st74{clip-path:url(#SVGID_2_);fill-rule:evenodd;clip-rule:evenodd;fill:#A9AAAA;}
	.st75{clip-path:url(#SVGID_2_);fill-rule:evenodd;clip-rule:evenodd;fill:#AAAAAA;}
	.st76{clip-path:url(#SVGID_2_);fill-rule:evenodd;clip-rule:evenodd;fill:#AAABAB;}
	.st77{clip-path:url(#SVGID_2_);fill-rule:evenodd;clip-rule:evenodd;fill:#ABABAB;}
	.st78{clip-path:url(#SVGID_2_);fill-rule:evenodd;clip-rule:evenodd;fill:#ABACAC;}
	.st79{clip-path:url(#SVGID_2_);fill-rule:evenodd;clip-rule:evenodd;fill:#ACACAC;}
	.st80{clip-path:url(#SVGID_2_);fill-rule:evenodd;clip-rule:evenodd;fill:#ACADAD;}
	.st81{clip-path:url(#SVGID_2_);fill-rule:evenodd;clip-rule:evenodd;fill:#ADADAD;}
	.st82{clip-path:url(#SVGID_2_);fill-rule:evenodd;clip-rule:evenodd;fill:#ADAEAE;}
	.st83{clip-path:url(#SVGID_2_);fill-rule:evenodd;clip-rule:evenodd;fill:#AEAEAE;}
	.st84{clip-path:url(#SVGID_2_);fill-rule:evenodd;clip-rule:evenodd;fill:#AEAFAF;}
	.st85{clip-path:url(#SVGID_2_);fill-rule:evenodd;clip-rule:evenodd;fill:#AFAFAF;}
	.st86{clip-path:url(#SVGID_2_);fill-rule:evenodd;clip-rule:evenodd;fill:#AFB0B0;}
	.st87{clip-path:url(#SVGID_2_);fill-rule:evenodd;clip-rule:evenodd;fill:#B0B0B0;}
	.st88{clip-path:url(#SVGID_2_);fill-rule:evenodd;clip-rule:evenodd;fill:#B0B1B1;}
	.st89{clip-path:url(#SVGID_2_);fill-rule:evenodd;clip-rule:evenodd;fill:#B1B1B1;}
	.st90{clip-path:url(#SVGID_2_);fill-rule:evenodd;clip-rule:evenodd;fill:#B1B2B2;}
	.st91{clip-path:url(#SVGID_2_);fill-rule:evenodd;clip-rule:evenodd;fill:#B2B2B2;}
	.st92{clip-path:url(#SVGID_2_);fill-rule:evenodd;clip-rule:evenodd;fill:#B2B3B3;}
	.st93{clip-path:url(#SVGID_2_);fill-rule:evenodd;clip-rule:evenodd;fill:#B3B3B3;}
	.st94{clip-path:url(#SVGID_2_);fill-rule:evenodd;clip-rule:evenodd;fill:#B3B4B4;}
	.st95{clip-path:url(#SVGID_2_);fill-rule:evenodd;clip-rule:evenodd;fill:#B4B4B4;}
	.st96{clip-path:url(#SVGID_2_);fill-rule:evenodd;clip-rule:evenodd;fill:#B4B5B5;}
	.st97{clip-path:url(#SVGID_2_);fill-rule:evenodd;clip-rule:evenodd;fill:#B5B5B5;}
	.st98{clip-path:url(#SVGID_2_);fill-rule:evenodd;clip-rule:evenodd;fill:#B5B6B6;}
	.st99{clip-path:url(#SVGID_2_);fill-rule:evenodd;clip-rule:evenodd;fill:#B6B6B6;}
	.st100{clip-path:url(#SVGID_2_);fill-rule:evenodd;clip-rule:evenodd;fill:#B6B7B7;}
	.st101{clip-path:url(#SVGID_2_);fill-rule:evenodd;clip-rule:evenodd;fill:#B7B7B7;}
	.st102{clip-path:url(#SVGID_2_);fill-rule:evenodd;clip-rule:evenodd;fill:#B7B8B8;}
	.st103{clip-path:url(#SVGID_2_);fill-rule:evenodd;clip-rule:evenodd;fill:#B8B8B8;}
	.st104{clip-path:url(#SVGID_2_);fill-rule:evenodd;clip-rule:evenodd;fill:#B8B9B9;}
	.st105{clip-path:url(#SVGID_2_);fill-rule:evenodd;clip-rule:evenodd;fill:#B9B9B9;}
	.st106{clip-path:url(#SVGID_2_);fill-rule:evenodd;clip-rule:evenodd;fill:#B9BABA;}
	.st107{clip-path:url(#SVGID_2_);fill-rule:evenodd;clip-rule:evenodd;fill:#BABABA;}
	.st108{clip-path:url(#SVGID_2_);fill-rule:evenodd;clip-rule:evenodd;fill:#BABBBB;}
	.st109{clip-path:url(#SVGID_2_);fill-rule:evenodd;clip-rule:evenodd;fill:#BBBBBB;}
	.st110{clip-path:url(#SVGID_2_);fill-rule:evenodd;clip-rule:evenodd;fill:#BBBCBC;}
	.st111{clip-path:url(#SVGID_2_);fill-rule:evenodd;clip-rule:evenodd;fill:#BCBCBC;}
	.st112{clip-path:url(#SVGID_2_);fill-rule:evenodd;clip-rule:evenodd;fill:#BCBDBD;}
	.st113{clip-path:url(#SVGID_2_);fill-rule:evenodd;clip-rule:evenodd;fill:#BDBDBD;}
	.st114{clip-path:url(#SVGID_2_);fill-rule:evenodd;clip-rule:evenodd;fill:#BDBEBE;}
	.st115{clip-path:url(#SVGID_2_);fill-rule:evenodd;clip-rule:evenodd;fill:#BEBEBE;}
	.st116{clip-path:url(#SVGID_2_);fill-rule:evenodd;clip-rule:evenodd;fill:#BEBFBF;}
	.st117{clip-path:url(#SVGID_2_);fill-rule:evenodd;clip-rule:evenodd;fill:#BFBFBF;}
	.st118{clip-path:url(#SVGID_2_);fill-rule:evenodd;clip-rule:evenodd;fill:#BFC0C0;}
	.st119{clip-path:url(#SVGID_2_);fill-rule:evenodd;clip-rule:evenodd;fill:#C0C0C0;}
	.st120{clip-path:url(#SVGID_2_);fill-rule:evenodd;clip-rule:evenodd;fill:#C0C1C1;}
	.st121{clip-path:url(#SVGID_2_);fill-rule:evenodd;clip-rule:evenodd;fill:#C1C1C1;}
	.st122{clip-path:url(#SVGID_2_);fill-rule:evenodd;clip-rule:evenodd;fill:#C2C2C2;}
	.st123{clip-path:url(#SVGID_2_);fill-rule:evenodd;clip-rule:evenodd;fill:#C2C3C3;}
	.st124{clip-path:url(#SVGID_2_);fill-rule:evenodd;clip-rule:evenodd;fill:#C3C3C3;}
	.st125{clip-path:url(#SVGID_2_);fill-rule:evenodd;clip-rule:evenodd;fill:#C3C4C4;}
	.st126{clip-path:url(#SVGID_2_);fill-rule:evenodd;clip-rule:evenodd;fill:#C4C4C4;}
	.st127{clip-path:url(#SVGID_2_);fill-rule:evenodd;clip-rule:evenodd;fill:#C4C5C5;}
	.st128{clip-path:url(#SVGID_2_);fill-rule:evenodd;clip-rule:evenodd;fill:#C5C5C5;}
	.st129{clip-path:url(#SVGID_2_);fill-rule:evenodd;clip-rule:evenodd;fill:#C6C6C6;}
	.st130{clip-path:url(#SVGID_2_);fill-rule:evenodd;clip-rule:evenodd;fill:#C7C7C7;}
	.st131{clip-path:url(#SVGID_2_);fill-rule:evenodd;clip-rule:evenodd;fill:#C7C8C8;}
	.st132{clip-path:url(#SVGID_2_);fill-rule:evenodd;clip-rule:evenodd;fill:#C8C8C8;}
	.st133{clip-path:url(#SVGID_2_);fill-rule:evenodd;clip-rule:evenodd;fill:#C8C9C9;}
	.st134{clip-path:url(#SVGID_2_);fill-rule:evenodd;clip-rule:evenodd;fill:#C9C9C9;}
	.st135{clip-path:url(#SVGID_2_);fill-rule:evenodd;clip-rule:evenodd;fill:#C9CACA;}
	.st136{clip-path:url(#SVGID_2_);fill-rule:evenodd;clip-rule:evenodd;fill:#CACACA;}
	.st137{clip-path:url(#SVGID_2_);fill-rule:evenodd;clip-rule:evenodd;fill:#CBCBCB;}
	.st138{clip-path:url(#SVGID_2_);fill-rule:evenodd;clip-rule:evenodd;fill:#CCCCCC;}
	.st139{clip-path:url(#SVGID_2_);fill-rule:evenodd;clip-rule:evenodd;fill:#CCCDCD;}
	.st140{clip-path:url(#SVGID_2_);fill-rule:evenodd;clip-rule:evenodd;fill:#CDCDCD;}
	.st141{clip-path:url(#SVGID_2_);fill-rule:evenodd;clip-rule:evenodd;fill:#CDCECE;}
	.st142{clip-path:url(#SVGID_2_);fill-rule:evenodd;clip-rule:evenodd;fill:#CECECE;}
	.st143{clip-path:url(#SVGID_2_);fill-rule:evenodd;clip-rule:evenodd;fill:#CFCFCF;}
	.st144{clip-path:url(#SVGID_2_);fill-rule:evenodd;clip-rule:evenodd;fill:#D0D0D0;}
	.st145{clip-path:url(#SVGID_2_);fill-rule:evenodd;clip-rule:evenodd;fill:#D1D1D1;}
	.st146{clip-path:url(#SVGID_2_);fill-rule:evenodd;clip-rule:evenodd;fill:#D1D2D2;}
	.st147{clip-path:url(#SVGID_2_);fill-rule:evenodd;clip-rule:evenodd;fill:#D2D2D2;}
	.st148{clip-path:url(#SVGID_2_);fill-rule:evenodd;clip-rule:evenodd;fill:#D3D3D3;}
	.st149{clip-path:url(#SVGID_2_);fill-rule:evenodd;clip-rule:evenodd;fill:#D4D4D4;}
	.st150{clip-path:url(#SVGID_2_);fill-rule:evenodd;clip-rule:evenodd;fill:#D5D5D5;}
	.st151{clip-path:url(#SVGID_2_);fill-rule:evenodd;clip-rule:evenodd;fill:#D6D6D6;}
	.st152{clip-path:url(#SVGID_2_);fill-rule:evenodd;clip-rule:evenodd;fill:#D6D7D7;}
	.st153{clip-path:url(#SVGID_2_);fill-rule:evenodd;clip-rule:evenodd;fill:#D7D7D7;}
	.st154{clip-path:url(#SVGID_2_);fill-rule:evenodd;clip-rule:evenodd;fill:#D8D8D8;}
	.st155{clip-path:url(#SVGID_4_);fill-rule:evenodd;clip-rule:evenodd;fill:#C2C2C2;}
	.st156{clip-path:url(#SVGID_4_);fill-rule:evenodd;clip-rule:evenodd;fill:#C3C3C3;}
	.st157{clip-path:url(#SVGID_4_);fill-rule:evenodd;clip-rule:evenodd;fill:#C4C4C4;}
	.st158{clip-path:url(#SVGID_4_);fill-rule:evenodd;clip-rule:evenodd;fill:#C5C5C5;}
	.st159{clip-path:url(#SVGID_4_);fill-rule:evenodd;clip-rule:evenodd;fill:#C6C6C6;}
	.st160{clip-path:url(#SVGID_4_);fill-rule:evenodd;clip-rule:evenodd;fill:#C7C7C7;}
	.st161{clip-path:url(#SVGID_4_);fill-rule:evenodd;clip-rule:evenodd;fill:#C8C8C8;}
	.st162{clip-path:url(#SVGID_4_);fill-rule:evenodd;clip-rule:evenodd;fill:#C9C9C9;}
	.st163{clip-path:url(#SVGID_4_);fill-rule:evenodd;clip-rule:evenodd;fill:#CACACA;}
	.st164{clip-path:url(#SVGID_4_);fill-rule:evenodd;clip-rule:evenodd;fill:#CBCBCB;}
	.st165{clip-path:url(#SVGID_4_);fill-rule:evenodd;clip-rule:evenodd;fill:#CCCCCC;}
	.st166{clip-path:url(#SVGID_4_);fill-rule:evenodd;clip-rule:evenodd;fill:#CDCDCD;}
	.st167{clip-path:url(#SVGID_4_);fill-rule:evenodd;clip-rule:evenodd;fill:#CECECE;}
	.st168{clip-path:url(#SVGID_4_);fill-rule:evenodd;clip-rule:evenodd;fill:#CFCFCF;}
	.st169{clip-path:url(#SVGID_4_);fill-rule:evenodd;clip-rule:evenodd;fill:#D0D0D0;}
	.st170{clip-path:url(#SVGID_4_);fill-rule:evenodd;clip-rule:evenodd;fill:#D1D1D1;}
	.st171{clip-path:url(#SVGID_4_);fill-rule:evenodd;clip-rule:evenodd;fill:#D2D2D2;}
	.st172{clip-path:url(#SVGID_4_);fill-rule:evenodd;clip-rule:evenodd;fill:#D3D3D3;}
	.st173{clip-path:url(#SVGID_4_);fill-rule:evenodd;clip-rule:evenodd;fill:#D4D4D4;}
	.st174{clip-path:url(#SVGID_4_);fill-rule:evenodd;clip-rule:evenodd;fill:#D5D5D5;}
	.st175{clip-path:url(#SVGID_4_);fill-rule:evenodd;clip-rule:evenodd;fill:#D6D6D6;}
	.st176{clip-path:url(#SVGID_4_);fill-rule:evenodd;clip-rule:evenodd;fill:#D7D7D7;}
	.st177{clip-path:url(#SVGID_4_);fill-rule:evenodd;clip-rule:evenodd;fill:#D8D8D8;}
	.st178{clip-path:url(#SVGID_4_);fill-rule:evenodd;clip-rule:evenodd;fill:#D9D9D9;}
	.st179{clip-path:url(#SVGID_4_);fill-rule:evenodd;clip-rule:evenodd;fill:#DADADA;}
	.st180{clip-path:url(#SVGID_4_);fill-rule:evenodd;clip-rule:evenodd;fill:#DBDBDB;}
	.st181{clip-path:url(#SVGID_4_);fill-rule:evenodd;clip-rule:evenodd;fill:#DCDCDC;}
	.st182{clip-path:url(#SVGID_4_);fill-rule:evenodd;clip-rule:evenodd;fill:#DDDDDD;}
	.st183{clip-path:url(#SVGID_4_);fill-rule:evenodd;clip-rule:evenodd;fill:#DEDEDE;}
	.st184{clip-path:url(#SVGID_4_);fill-rule:evenodd;clip-rule:evenodd;fill:#DFDFDF;}
	.st185{clip-path:url(#SVGID_4_);fill-rule:evenodd;clip-rule:evenodd;fill:#E0E0E0;}
	.st186{clip-path:url(#SVGID_4_);fill-rule:evenodd;clip-rule:evenodd;fill:#E1E1E1;}
	.st187{clip-path:url(#SVGID_4_);fill-rule:evenodd;clip-rule:evenodd;fill:#E2E2E2;}
	.st188{clip-path:url(#SVGID_4_);fill-rule:evenodd;clip-rule:evenodd;fill:#E3E3E3;}
	.st189{clip-path:url(#SVGID_4_);fill-rule:evenodd;clip-rule:evenodd;fill:#E4E4E4;}
	.st190{clip-path:url(#SVGID_4_);fill-rule:evenodd;clip-rule:evenodd;fill:#E5E5E5;}
	.st191{clip-path:url(#SVGID_4_);fill-rule:evenodd;clip-rule:evenodd;fill:#E6E6E6;}
	.st192{clip-path:url(#SVGID_4_);fill-rule:evenodd;clip-rule:evenodd;fill:#E7E7E7;}
	.st193{clip-path:url(#SVGID_4_);fill-rule:evenodd;clip-rule:evenodd;fill:#E8E8E8;}
	.st194{clip-path:url(#SVGID_4_);fill-rule:evenodd;clip-rule:evenodd;fill:#E9E9E9;}
	.st195{clip-path:url(#SVGID_4_);fill-rule:evenodd;clip-rule:evenodd;fill:#EAEAEA;}
	.st196{clip-path:url(#SVGID_4_);fill-rule:evenodd;clip-rule:evenodd;fill:#EBEBEB;}
	.st197{clip-path:url(#SVGID_4_);fill-rule:evenodd;clip-rule:evenodd;fill:#ECECEC;}
	.st198{clip-path:url(#SVGID_4_);fill-rule:evenodd;clip-rule:evenodd;fill:#EDEDED;}
	.st199{clip-path:url(#SVGID_4_);fill-rule:evenodd;clip-rule:evenodd;fill:#EEEEEE;}
	.st200{clip-path:url(#SVGID_4_);fill-rule:evenodd;clip-rule:evenodd;fill:#EFEFEF;}
	.st201{clip-path:url(#SVGID_4_);fill-rule:evenodd;clip-rule:evenodd;fill:#F0F0F0;}
	.st202{clip-path:url(#SVGID_4_);fill-rule:evenodd;clip-rule:evenodd;fill:#F1F1F1;}
	.st203{clip-path:url(#SVGID_4_);fill-rule:evenodd;clip-rule:evenodd;fill:#F2F2F2;}
	.st204{clip-path:url(#SVGID_4_);fill-rule:evenodd;clip-rule:evenodd;fill:#F3F3F3;}
	.st205{clip-path:url(#SVGID_4_);fill-rule:evenodd;clip-rule:evenodd;fill:#F4F4F4;}
	.st206{clip-path:url(#SVGID_4_);fill-rule:evenodd;clip-rule:evenodd;fill:#F5F5F5;}
	.st207{clip-path:url(#SVGID_4_);fill-rule:evenodd;clip-rule:evenodd;fill:#F6F6F6;}
	.st208{clip-path:url(#SVGID_4_);fill-rule:evenodd;clip-rule:evenodd;fill:#F7F7F7;}
	.st209{clip-path:url(#SVGID_4_);fill-rule:evenodd;clip-rule:evenodd;fill:#F8F8F8;}
	.st210{clip-path:url(#SVGID_4_);fill-rule:evenodd;clip-rule:evenodd;fill:#F9F9F9;}
	.st211{clip-path:url(#SVGID_4_);fill-rule:evenodd;clip-rule:evenodd;fill:#FAFAFA;}
	.st212{clip-path:url(#SVGID_4_);fill-rule:evenodd;clip-rule:evenodd;fill:#FBFBFB;}
	.st213{clip-path:url(#SVGID_4_);fill-rule:evenodd;clip-rule:evenodd;fill:#FCFCFC;}
	.st214{clip-path:url(#SVGID_4_);fill-rule:evenodd;clip-rule:evenodd;fill:#FDFDFD;}
	.st215{clip-path:url(#SVGID_4_);fill-rule:evenodd;clip-rule:evenodd;fill:#FEFEFE;}
	.st216{clip-path:url(#SVGID_4_);fill-rule:evenodd;clip-rule:evenodd;fill:#FFFFFF;}
	.st217{fill:#220D26;}
	.st218{fill-rule:evenodd;clip-rule:evenodd;fill:#220D26;}
</style>
<g>
	<g>
		<defs>
			<path id="SVGID_1_" d="M84.89,421.69v-0.11l17.31-87.12H55l1.43-21.84l12.02-59.66h172.03l-0.22,4.3
				c18.42-15.88,42.46-25.47,68.7-25.47c47.53,0,87.67,31.43,100.9,74.66l10.7-53.48h147.66c5.73,0,11.25,1.21,16.32,3.64
				c4.85,2.43,9.04,5.73,12.46,9.93c3.2,4.08,5.51,8.71,6.95,13.78c0.88,3.2,1.32,6.4,1.32,9.7l1.43-7.17
				c1.65-8.71,6.07-16.21,13.01-21.72c6.73-5.4,14.67-8.16,23.38-8.16h98.48c5.62,0,11.14,1.21,16.21,3.64
				c4.96,2.43,9.15,5.73,12.57,9.93c3.2,4.08,5.51,8.71,6.95,13.78c0.99,3.64,1.32,7.39,1.21,11.14l-0.11,0.11v0.11v1.43l1.98-10.26
				c1.65-8.71,5.96-16.1,12.79-21.61c6.73-5.51,14.78-8.27,23.49-8.27h103.22c5.62,0,11.03,1.21,16.1,3.64
				c4.85,2.43,9.04,5.62,12.46,9.81c3.42,4.08,5.73,8.82,7.17,13.9c0.77,2.65,1.21,5.29,1.32,8.05l1.1-5.51
				c1.65-8.71,5.96-16.1,12.79-21.61c6.73-5.51,14.67-8.27,23.38-8.27h103.33c5.51,0,11.03,1.21,15.99,3.64
				c4.85,2.43,9.04,5.62,12.46,9.81c3.42,4.08,5.84,8.82,7.28,13.9c0.99,3.75,1.32,7.5,1.1,11.36l-1.32,21.84
				c-0.11,1.87-0.44,3.64-0.77,5.51l-18.86,94.62c-1.76,8.6-6.07,16.1-13.01,21.61c-6.73,5.4-14.67,8.16-23.38,8.16H973.95
				c-5.62,0-11.14-1.21-16.32-3.64c-4.85-2.43-9.04-5.73-12.46-10.04c-3.2-4.08-5.51-8.82-6.95-13.9c-1.1-3.97-1.43-7.94-1.21-12.02
				l0.11-1.21l-2.21,10.92c-1.65,8.6-5.96,16.1-12.79,21.61c-6.84,5.51-14.78,8.27-23.49,8.27H792.98c-5.18,0-10.26-1.1-14.89-3.31
				c-4.63-2.21-8.6-5.29-11.8-9.26c-2.98-3.86-5.18-8.16-6.51-12.9c-0.88-3.42-1.21-7.06-0.99-10.59v-0.66l-7.28,36.72h-69.81
				l1.43-21.84l3.64-18.31h-31.32l-8.16,40.14H513.87l-18.09-40.14h-32.53l-8.05,40.14h-69.81l0.99-14.23
				c-19.3,21.72-47.53,35.4-78.85,35.4c-4.19,0-8.16-0.44-12.35-0.77c-52.38-6.18-93.07-50.73-93.07-104.76
				c0-2.21,0.11-4.52,0.22-6.73l1.1-17.87h-23.71l-21.84,108.95H83.45L84.89,421.69z M1113.12,421.69v-0.11l33.75-168.62h95.28
				l11.58,57.79l11.47-57.79H1335l-1.43,21.84l-33.75,168.62h-95.06l-11.58-58.12l-11.69,58.12h-69.7L1113.12,421.69z
				 M1014.86,361.92h36.28l5.4-27.46h-36.17L1014.86,361.92z M837.31,361.92h35.18l2.87-14.23h3.53l0.77-13.23h-36.83L837.31,361.92
				z M576.06,397.43l5.4,11.91l4.19-20.84c-1.76,2.32-3.75,4.41-6.07,6.29C578.49,395.78,577.28,396.55,576.06,397.43L576.06,397.43
				z"/>
		</defs>
		<clipPath id="SVGID_2_">
			<use xlink:href="#SVGID_1_"  style="overflow:visible;"/>
		</clipPath>
		<polygon class="st0" points="51.69,457.75 51.91,446.95 1328.71,481.68 1328.49,492.38 		"/>
		<polygon class="st0" points="51.91,447.5 52.02,446.06 1328.71,480.69 1328.71,482.13 		"/>
		<polygon class="st1" points="52.02,446.51 52.02,445.18 1328.82,479.81 1328.71,481.24 		"/>
		<polygon class="st1" points="52.02,445.62 52.02,444.3 1328.82,478.93 1328.82,480.25 		"/>
		<polygon class="st1" points="52.02,444.74 52.02,443.31 1328.82,477.94 1328.82,479.37 		"/>
		<polygon class="st2" points="52.02,443.75 52.13,442.43 1328.82,477.05 1328.82,478.49 		"/>
		<polygon class="st2" points="52.02,442.87 52.13,441.54 1328.93,476.17 1328.82,477.49 		"/>
		<polygon class="st3" points="52.13,441.98 52.13,440.55 1328.93,475.18 1328.82,476.61 		"/>
		<polygon class="st4" points="52.13,440.99 52.13,439.67 1328.93,474.3 1328.93,475.73 		"/>
		<polygon class="st4" points="52.13,440.11 52.13,438.79 1328.93,473.41 1328.93,474.74 		"/>
		<polygon class="st5" points="52.13,439.23 52.24,437.79 1328.93,472.42 1328.93,473.85 		"/>
		<polygon class="st5" points="52.24,438.23 52.24,436.91 1329.05,471.54 1328.93,472.97 		"/>
		<polygon class="st5" points="52.24,437.35 52.24,436.03 1329.05,470.66 1329.05,471.98 		"/>
		<polygon class="st6" points="52.24,436.47 52.24,435.04 1329.05,469.66 1329.05,471.1 		"/>
		<polygon class="st6" points="52.24,435.48 52.35,434.15 1329.05,468.78 1329.05,470.22 		"/>
		<polygon class="st6" points="52.24,434.6 52.35,433.27 1329.16,467.9 1329.05,469.22 		"/>
		<polygon class="st7" points="52.35,433.71 52.35,432.28 1329.16,466.91 1329.05,468.34 		"/>
		<polygon class="st7" points="52.35,432.72 52.35,431.4 1329.16,466.02 1329.16,467.46 		"/>
		<polygon class="st7" points="52.35,431.84 52.35,430.52 1329.16,465.14 1329.16,466.47 		"/>
		<polygon class="st8" points="52.35,430.96 52.46,429.52 1329.27,464.15 1329.16,465.58 		"/>
		<polygon class="st8" points="52.46,429.96 52.46,428.64 1329.27,463.27 1329.16,464.7 		"/>
		<polygon class="st9" points="52.46,429.08 52.46,427.76 1329.27,462.39 1329.27,463.71 		"/>
		<polygon class="st10" points="52.46,428.2 52.46,426.77 1329.27,461.39 1329.27,462.83 		"/>
		<polygon class="st10" points="52.46,427.21 52.57,425.88 1329.27,460.51 1329.27,461.94 		"/>
		<polygon class="st11" points="52.46,426.32 52.57,425 1329.38,459.63 1329.27,460.95 		"/>
		<polygon class="st11" points="52.57,425.44 52.57,424.01 1329.38,458.64 1329.38,460.07 		"/>
		<polygon class="st11" points="52.57,424.45 52.57,423.13 1329.38,457.75 1329.38,459.19 		"/>
		<polygon class="st12" points="52.57,423.57 52.68,422.24 1329.38,456.87 1329.38,458.2 		"/>
		<polygon class="st12" points="52.57,422.69 52.68,421.25 1329.49,455.99 1329.38,457.31 		"/>
		<polygon class="st12" points="52.68,421.69 52.68,420.37 1329.49,455 1329.38,456.43 		"/>
		<polygon class="st13" points="52.68,420.81 52.68,419.49 1329.49,454.11 1329.49,455.44 		"/>
		<polygon class="st13" points="52.68,419.93 52.68,418.5 1329.49,453.23 1329.49,454.56 		"/>
		<polygon class="st14" points="52.68,418.94 52.79,417.61 1329.49,452.24 1329.49,453.67 		"/>
		<polygon class="st15" points="52.79,418.05 52.79,416.73 1329.6,451.36 1329.49,452.68 		"/>
		<polygon class="st15" points="52.79,417.17 52.79,415.74 1329.6,450.48 1329.6,451.8 		"/>
		<polygon class="st16" points="52.79,416.18 52.79,414.86 1329.6,449.48 1329.6,450.92 		"/>
		<polygon class="st17" points="52.79,415.3 52.9,413.97 1329.6,448.6 1329.6,449.92 		"/>
		<polygon class="st17" points="52.79,414.41 52.9,412.98 1329.71,447.72 1329.6,449.04 		"/>
		<polygon class="st18" points="52.9,413.42 52.9,412.1 1329.71,446.73 1329.6,448.16 		"/>
		<polygon class="st18" points="52.9,412.54 52.9,411.22 1329.71,445.84 1329.71,447.17 		"/>
		<polygon class="st18" points="52.9,411.66 52.9,410.22 1329.71,444.96 1329.71,446.29 		"/>
		<polygon class="st19" points="52.9,410.67 53.01,409.34 1329.71,443.97 1329.71,445.4 		"/>
		<polygon class="st19" points="53.01,409.78 53.01,408.46 1329.82,443.09 1329.71,444.41 		"/>
		<polygon class="st20" points="53.01,408.9 53.01,407.47 1329.82,442.2 1329.82,443.53 		"/>
		<polygon class="st21" points="53.01,408.02 53.01,406.58 1329.82,441.21 1329.82,442.65 		"/>
		<polygon class="st21" points="53.01,407.03 53.13,405.7 1329.82,440.33 1329.82,441.65 		"/>
		<polygon class="st22" points="53.01,406.14 53.13,404.71 1329.93,439.45 1329.82,440.77 		"/>
		<polygon class="st23" points="53.13,405.26 53.13,403.83 1329.93,438.46 1329.93,439.89 		"/>
		<polygon class="st23" points="53.13,404.27 53.13,402.95 1329.93,437.57 1329.93,438.9 		"/>
		<polygon class="st24" points="53.13,403.39 53.13,401.95 1329.93,436.69 1329.93,438.01 		"/>
		<polygon class="st25" points="53.13,402.5 53.24,401.07 1330.04,435.7 1329.93,437.13 		"/>
		<polygon class="st25" points="53.24,401.51 53.24,400.19 1330.04,434.82 1329.93,436.14 		"/>
		<polygon class="st26" points="53.24,400.63 53.24,399.2 1330.04,433.93 1330.04,435.26 		"/>
		<polygon class="st26" points="53.24,399.75 53.24,398.31 1330.04,432.94 1330.04,434.38 		"/>
		<polygon class="st26" points="53.24,398.76 53.35,397.43 1330.04,432.06 1330.04,433.38 		"/>
		<polygon class="st27" points="53.24,397.87 53.35,396.44 1330.15,431.18 1330.04,432.5 		"/>
		<polygon class="st27" points="53.35,396.99 53.35,395.56 1330.15,430.18 1330.15,431.62 		"/>
		<polygon class="st28" points="53.35,396 53.35,394.67 1330.15,429.3 1330.15,430.63 		"/>
		<polygon class="st29" points="53.35,395.12 53.46,393.68 1330.15,428.42 1330.15,429.74 		"/>
		<polygon class="st29" points="53.35,394.23 53.46,392.8 1330.26,427.43 1330.15,428.86 		"/>
		<polygon class="st30" points="53.46,393.24 53.46,391.92 1330.26,426.55 1330.15,427.87 		"/>
		<polygon class="st31" points="53.46,392.36 53.46,390.93 1330.26,425.66 1330.26,426.99 		"/>
		<polygon class="st31" points="53.46,391.48 53.46,390.04 1330.26,424.67 1330.26,426.1 		"/>
		<polygon class="st32" points="53.46,390.48 53.57,389.16 1330.26,423.79 1330.26,425.11 		"/>
		<polygon class="st33" points="53.57,389.6 53.57,388.17 1330.37,422.91 1330.26,424.23 		"/>
		<polygon class="st33" points="53.57,388.72 53.57,387.29 1330.37,421.91 1330.37,423.35 		"/>
		<polygon class="st34" points="53.57,387.73 53.57,386.4 1330.37,421.03 1330.37,422.35 		"/>
		<polygon class="st34" points="53.57,386.85 53.68,385.41 1330.37,420.15 1330.37,421.47 		"/>
		<polygon class="st35" points="53.57,385.96 53.68,384.53 1330.48,419.16 1330.37,420.59 		"/>
		<polygon class="st36" points="53.68,384.97 53.68,383.65 1330.48,418.27 1330.37,419.6 		"/>
		<polygon class="st36" points="53.68,384.09 53.68,382.65 1330.48,417.39 1330.48,418.72 		"/>
		<polygon class="st37" points="53.68,383.21 53.68,381.77 1330.48,416.4 1330.48,417.83 		"/>
		<polygon class="st38" points="53.68,382.21 53.79,380.89 1330.48,415.52 1330.48,416.95 		"/>
		<polygon class="st38" points="53.79,381.33 53.79,379.9 1330.59,414.64 1330.48,415.96 		"/>
		<polygon class="st39" points="53.79,380.45 53.79,379.02 1330.59,413.64 1330.59,415.08 		"/>
		<polygon class="st40" points="53.79,379.46 53.79,378.13 1330.59,412.76 1330.59,414.19 		"/>
		<polygon class="st40" points="53.79,378.57 53.9,377.14 1330.59,411.88 1330.59,413.2 		"/>
		<polygon class="st41" points="53.79,377.69 53.9,376.26 1330.7,410.89 1330.59,412.32 		"/>
		<polygon class="st42" points="53.9,376.7 53.9,375.38 1330.7,410 1330.7,411.44 		"/>
		<polygon class="st43" points="53.9,375.82 53.9,374.38 1330.7,409.12 1330.7,410.44 		"/>
		<polygon class="st44" points="53.9,374.94 53.9,373.5 1330.7,408.13 1330.7,409.56 		"/>
		<polygon class="st44" points="53.9,373.94 54.01,372.62 1330.81,407.25 1330.7,408.68 		"/>
		<polygon class="st45" points="54.01,373.06 54.01,371.74 1330.81,406.36 1330.7,407.69 		"/>
		<polygon class="st46" points="54.01,372.18 54.01,370.74 1330.81,405.37 1330.81,406.81 		"/>
		<polygon class="st46" points="54.01,371.19 54.01,369.86 1330.81,404.49 1330.81,405.92 		"/>
		<polygon class="st47" points="54.01,370.3 54.12,368.98 1330.81,403.61 1330.81,404.93 		"/>
		<polygon class="st48" points="54.12,369.42 54.12,367.99 1330.92,402.61 1330.81,404.05 		"/>
		<polygon class="st48" points="54.12,368.43 54.12,367.11 1330.92,401.73 1330.92,403.17 		"/>
		<polygon class="st49" points="54.12,367.55 54.12,366.22 1330.92,400.85 1330.92,402.17 		"/>
		<polygon class="st50" points="54.12,366.66 54.23,365.23 1330.92,399.86 1330.92,401.29 		"/>
		<polygon class="st50" points="54.12,365.67 54.23,364.35 1331.03,398.98 1330.92,400.41 		"/>
		<polygon class="st51" points="54.23,364.79 54.23,363.47 1331.03,398.09 1330.92,399.42 		"/>
		<polygon class="st52" points="54.23,363.91 54.23,362.47 1331.03,397.1 1331.03,398.53 		"/>
		<polygon class="st53" points="54.23,362.91 54.23,361.59 1331.03,396.22 1331.03,397.65 		"/>
		<polygon class="st54" points="54.23,362.03 54.34,360.71 1331.03,395.34 1331.03,396.66 		"/>
		<polygon class="st54" points="54.34,361.15 54.34,359.72 1331.14,394.34 1331.03,395.78 		"/>
		<polygon class="st55" points="54.34,360.16 54.34,358.83 1331.14,393.46 1331.14,394.9 		"/>
		<polygon class="st56" points="54.34,359.28 54.34,357.95 1331.14,392.58 1331.14,393.9 		"/>
		<polygon class="st56" points="54.34,358.39 54.45,356.96 1331.14,391.59 1331.14,393.02 		"/>
		<polygon class="st57" points="54.34,357.4 54.45,356.08 1331.25,390.7 1331.14,392.14 		"/>
		<polygon class="st58" points="54.45,356.52 54.45,355.2 1331.25,389.82 1331.14,391.15 		"/>
		<polygon class="st58" points="54.45,355.64 54.45,354.2 1331.25,388.83 1331.25,390.26 		"/>
		<polygon class="st59" points="54.45,354.64 54.45,353.32 1331.25,387.95 1331.25,389.38 		"/>
		<polygon class="st60" points="54.45,353.76 54.56,352.44 1331.36,387.07 1331.25,388.39 		"/>
		<polygon class="st61" points="54.56,352.88 54.56,351.45 1331.36,386.07 1331.25,387.51 		"/>
		<polygon class="st61" points="54.56,351.89 54.56,350.56 1331.36,385.19 1331.36,386.62 		"/>
		<polygon class="st62" points="54.56,351 54.56,349.68 1331.36,384.31 1331.36,385.63 		"/>
		<polygon class="st63" points="54.56,350.12 54.67,348.69 1331.36,383.32 1331.36,384.75 		"/>
		<polygon class="st64" points="54.56,349.13 54.67,347.81 1331.47,382.43 1331.36,383.87 		"/>
		<polygon class="st64" points="54.67,348.25 54.67,346.92 1331.47,381.55 1331.47,382.88 		"/>
		<polygon class="st65" points="54.67,347.37 54.67,345.93 1331.47,380.67 1331.47,381.99 		"/>
		<polygon class="st66" points="54.67,346.37 54.67,345.05 1331.47,379.68 1331.47,381.11 		"/>
		<polygon class="st66" points="54.67,345.49 54.78,344.17 1331.58,378.79 1331.47,380.12 		"/>
		<polygon class="st67" points="54.78,344.61 54.78,343.17 1331.58,377.91 1331.47,379.24 		"/>
		<polygon class="st68" points="54.78,343.62 54.78,342.29 1331.58,376.92 1331.58,378.35 		"/>
		<polygon class="st68" points="54.78,342.73 54.78,341.41 1331.58,376.04 1331.58,377.36 		"/>
		<polygon class="st69" points="54.78,341.85 54.89,340.42 1331.58,375.16 1331.58,376.48 		"/>
		<polygon class="st70" points="54.89,340.86 54.89,339.54 1331.69,374.16 1331.58,375.6 		"/>
		<polygon class="st71" points="54.89,339.98 54.89,338.65 1331.69,373.28 1331.69,374.6 		"/>
		<polygon class="st71" points="54.89,339.09 54.89,337.66 1331.69,372.4 1331.69,373.72 		"/>
		<polygon class="st72" points="54.89,338.1 55,336.78 1331.69,371.41 1331.69,372.84 		"/>
		<polygon class="st73" points="54.89,337.22 55,335.9 1331.8,370.52 1331.69,371.85 		"/>
		<polygon class="st74" points="55,336.34 55,334.9 1331.8,369.64 1331.69,370.97 		"/>
		<polygon class="st74" points="55,335.46 55,334.02 1331.8,368.65 1331.8,370.08 		"/>
		<polygon class="st75" points="55,334.46 55,333.14 1331.8,367.77 1331.8,369.09 		"/>
		<polygon class="st76" points="55,333.58 55.11,332.15 1331.8,366.88 1331.8,368.21 		"/>
		<polygon class="st76" points="55.11,332.7 55.11,331.26 1331.91,365.89 1331.8,367.33 		"/>
		<polygon class="st77" points="55.11,331.71 55.11,330.38 1331.91,365.01 1331.91,366.33 		"/>
		<polygon class="st78" points="55.11,330.82 55.11,329.39 1331.91,364.13 1331.91,365.45 		"/>
		<polygon class="st79" points="55.11,329.94 55.22,328.51 1331.91,363.14 1331.91,364.57 		"/>
		<polygon class="st79" points="55.11,328.95 55.22,327.63 1332.02,362.25 1331.91,363.58 		"/>
		<polygon class="st80" points="55.22,328.07 55.22,326.63 1332.02,361.37 1331.91,362.69 		"/>
		<polygon class="st81" points="55.22,327.18 55.22,325.75 1332.02,360.38 1332.02,361.81 		"/>
		<polygon class="st81" points="55.22,326.19 55.22,324.87 1332.02,359.5 1332.02,360.82 		"/>
		<polygon class="st82" points="55.22,325.31 55.33,323.88 1332.13,358.61 1332.02,359.94 		"/>
		<polygon class="st83" points="55.33,324.43 55.33,322.99 1332.13,357.62 1332.02,359.06 		"/>
		<polygon class="st84" points="55.33,323.44 55.33,322.11 1332.13,356.74 1332.13,358.06 		"/>
		<polygon class="st84" points="55.33,322.55 55.33,321.12 1332.13,355.86 1332.13,357.18 		"/>
		<polygon class="st85" points="55.33,321.67 55.44,320.24 1332.13,354.86 1332.13,356.3 		"/>
		<polygon class="st86" points="55.33,320.68 55.44,319.35 1332.24,353.98 1332.13,355.31 		"/>
		<polygon class="st87" points="55.44,319.8 55.44,318.36 1332.24,353.1 1332.24,354.42 		"/>
		<polygon class="st87" points="55.44,318.91 55.44,317.48 1332.24,352.11 1332.24,353.54 		"/>
		<polygon class="st88" points="55.44,317.92 55.55,316.6 1332.24,351.23 1332.24,352.55 		"/>
		<polygon class="st89" points="55.44,317.04 55.55,315.61 1332.35,350.34 1332.24,351.67 		"/>
		<polygon class="st89" points="55.55,316.16 55.55,314.72 1332.35,349.35 1332.24,350.78 		"/>
		<polygon class="st90" points="55.55,315.16 55.55,313.84 1332.35,348.47 1332.35,349.79 		"/>
		<polygon class="st91" points="55.55,314.28 55.55,312.85 1332.35,347.59 1332.35,348.91 		"/>
		<polygon class="st91" points="55.55,313.4 55.66,311.97 1332.35,346.59 1332.35,348.03 		"/>
		<polygon class="st92" points="55.66,312.41 55.66,311.08 1332.46,345.71 1332.35,347.03 		"/>
		<polygon class="st93" points="55.66,311.53 55.66,310.09 1332.46,344.83 1332.46,346.15 		"/>
		<polygon class="st94" points="55.66,310.64 55.66,309.21 1332.46,343.84 1332.46,345.27 		"/>
		<polygon class="st94" points="55.66,309.65 55.77,308.33 1332.46,342.95 1332.46,344.39 		"/>
		<polygon class="st95" points="55.66,308.77 55.77,307.33 1332.57,342.07 1332.46,343.4 		"/>
		<polygon class="st96" points="55.77,307.89 55.77,306.45 1332.57,341.08 1332.46,342.51 		"/>
		<polygon class="st97" points="55.77,306.89 55.77,305.57 1332.57,340.2 1332.57,341.63 		"/>
		<polygon class="st97" points="55.77,306.01 55.77,304.58 1332.57,339.32 1332.57,340.64 		"/>
		<polygon class="st98" points="55.77,305.13 55.88,303.7 1332.57,338.32 1332.57,339.76 		"/>
		<polygon class="st99" points="55.88,304.14 55.88,302.81 1332.68,337.44 1332.57,338.87 		"/>
		<polygon class="st99" points="55.88,303.25 55.88,301.82 1332.68,336.56 1332.68,337.88 		"/>
		<polygon class="st100" points="55.88,302.37 55.88,300.94 1332.68,335.57 1332.68,337 		"/>
		<polygon class="st101" points="55.88,301.38 55.99,300.06 1332.68,334.68 1332.68,336.12 		"/>
		<polygon class="st101" points="55.88,300.5 55.99,299.17 1332.79,333.8 1332.68,335.12 		"/>
		<polygon class="st102" points="55.99,299.62 55.99,298.18 1332.79,332.81 1332.68,334.24 		"/>
		<polygon class="st103" points="55.99,298.62 55.99,297.3 1332.79,331.93 1332.79,333.36 		"/>
		<polygon class="st104" points="55.99,297.74 55.99,296.42 1332.79,331.04 1332.79,332.37 		"/>
		<polygon class="st105" points="55.99,296.86 56.1,295.42 1332.9,330.05 1332.79,331.49 		"/>
		<polygon class="st105" points="56.1,295.87 56.1,294.54 1332.9,329.17 1332.79,330.6 		"/>
		<polygon class="st106" points="56.1,294.98 56.1,293.66 1332.9,328.29 1332.9,329.61 		"/>
		<polygon class="st107" points="56.1,294.1 56.1,292.67 1332.9,327.29 1332.9,328.73 		"/>
		<polygon class="st107" points="56.1,293.11 56.21,291.79 1332.9,326.41 1332.9,327.85 		"/>
		<polygon class="st108" points="56.1,292.23 56.21,290.9 1333.01,325.53 1332.9,326.85 		"/>
		<polygon class="st109" points="56.21,291.34 56.21,289.91 1333.01,324.54 1333.01,325.97 		"/>
		<polygon class="st109" points="56.21,290.35 56.21,289.03 1333.01,323.66 1333.01,325.09 		"/>
		<polygon class="st110" points="56.21,289.47 56.32,288.15 1333.01,322.77 1333.01,324.1 		"/>
		<polygon class="st111" points="56.21,288.59 56.32,287.15 1333.13,321.78 1333.01,323.21 		"/>
		<polygon class="st111" points="56.32,287.59 56.32,286.27 1333.13,320.9 1333.01,322.33 		"/>
		<polygon class="st112" points="56.32,286.71 56.32,285.39 1333.13,320.02 1333.13,321.34 		"/>
		<polygon class="st113" points="56.32,285.83 56.32,284.4 1333.13,319.02 1333.13,320.46 		"/>
		<polygon class="st114" points="56.32,284.84 56.43,283.51 1333.13,318.14 1333.13,319.58 		"/>
		<polygon class="st115" points="56.43,283.96 56.43,282.63 1333.24,317.26 1333.13,318.58 		"/>
		<polygon class="st115" points="56.43,283.07 56.43,281.64 1333.24,316.27 1333.24,317.7 		"/>
		<polygon class="st116" points="56.43,282.08 56.43,280.76 1333.24,315.38 1333.24,316.82 		"/>
		<polygon class="st117" points="56.43,281.2 56.54,279.88 1333.24,314.5 1333.24,315.83 		"/>
		<polygon class="st117" points="56.43,280.32 56.54,278.88 1333.35,313.51 1333.24,314.94 		"/>
		<polygon class="st118" points="56.54,279.32 56.54,278 1333.35,312.63 1333.24,314.06 		"/>
		<polygon class="st119" points="56.54,278.44 56.54,277.12 1333.35,311.75 1333.35,313.07 		"/>
		<polygon class="st119" points="56.54,277.56 56.54,276.13 1333.35,310.75 1333.35,312.19 		"/>
		<polygon class="st120" points="56.54,276.57 56.65,275.24 1333.35,309.87 1333.35,311.3 		"/>
		<polygon class="st121" points="56.65,275.68 56.65,274.36 1333.46,308.99 1333.35,310.31 		"/>
		<polygon class="st121" points="56.65,274.8 56.65,273.37 1333.46,308.11 1333.46,309.43 		"/>
		<polygon class="st122" points="56.65,273.81 56.65,272.49 1333.46,307.11 1333.46,308.55 		"/>
		<polygon class="st122" points="56.65,272.93 56.76,271.6 1333.46,306.23 1333.46,307.56 		"/>
		<polygon class="st123" points="56.65,272.05 56.76,270.61 1333.57,305.35 1333.46,306.67 		"/>
		<polygon class="st124" points="56.76,271.05 56.76,269.73 1333.57,304.36 1333.57,305.79 		"/>
		<polygon class="st124" points="56.76,270.17 56.76,268.85 1333.57,303.47 1333.57,304.8 		"/>
		<polygon class="st125" points="56.76,269.29 56.76,267.85 1333.57,302.59 1333.57,303.92 		"/>
		<polygon class="st126" points="56.76,268.3 56.87,266.97 1333.68,301.6 1333.57,303.03 		"/>
		<polygon class="st126" points="56.87,267.41 56.87,266.09 1333.68,300.72 1333.57,302.04 		"/>
		<polygon class="st127" points="56.87,266.53 56.87,265.1 1333.68,299.84 1333.68,301.16 		"/>
		<polygon class="st128" points="56.87,265.54 56.87,264.22 1333.68,298.84 1333.68,300.28 		"/>
		<polygon class="st128" points="56.87,264.66 56.99,263.33 1333.68,297.96 1333.68,299.28 		"/>
		<polygon class="st129" points="56.87,263.77 56.99,262.34 1333.79,297.08 1333.68,298.4 		"/>
		<polygon class="st129" points="56.99,262.89 56.99,261.46 1333.79,296.09 1333.79,297.52 		"/>
		<polygon class="st129" points="56.99,261.9 56.99,260.58 1333.79,295.2 1333.79,296.53 		"/>
		<polygon class="st130" points="56.99,261.02 57.1,259.58 1333.79,294.32 1333.79,295.65 		"/>
		<polygon class="st130" points="56.99,260.14 57.1,258.7 1333.9,293.33 1333.79,294.76 		"/>
		<polygon class="st131" points="57.1,259.14 57.1,257.82 1333.9,292.45 1333.79,293.77 		"/>
		<polygon class="st132" points="57.1,258.26 57.1,256.83 1333.9,291.56 1333.9,292.89 		"/>
		<polygon class="st132" points="57.1,257.38 57.1,255.94 1333.9,290.57 1333.9,292.01 		"/>
		<polygon class="st133" points="57.1,256.39 57.21,255.06 1333.9,289.69 1333.9,291.01 		"/>
		<polygon class="st134" points="57.21,255.5 57.21,254.07 1334.01,288.81 1333.9,290.13 		"/>
		<polygon class="st134" points="57.21,254.62 57.21,253.19 1334.01,287.82 1334.01,289.25 		"/>
		<polygon class="st135" points="57.21,253.63 57.21,252.31 1334.01,286.93 1334.01,288.26 		"/>
		<polygon class="st136" points="57.21,252.75 57.32,251.31 1334.01,286.05 1334.01,287.37 		"/>
		<polygon class="st136" points="57.21,251.86 57.32,250.43 1334.12,285.06 1334.01,286.49 		"/>
		<polygon class="st137" points="57.32,250.87 57.32,249.55 1334.12,284.18 1334.01,285.5 		"/>
		<polygon class="st137" points="57.32,249.99 57.32,248.56 1334.12,283.29 1334.12,284.62 		"/>
		<polygon class="st137" points="57.32,249.11 57.32,247.67 1334.12,282.3 1334.12,283.74 		"/>
		<polygon class="st138" points="57.32,248.12 57.43,246.79 1334.12,281.42 1334.12,282.74 		"/>
		<polygon class="st138" points="57.43,247.23 57.43,245.8 1334.23,280.54 1334.12,281.86 		"/>
		<polygon class="st139" points="57.43,246.35 57.43,244.92 1334.23,279.54 1334.23,280.98 		"/>
		<polygon class="st140" points="57.43,245.36 57.43,244.03 1334.23,278.66 1334.23,279.99 		"/>
		<polygon class="st140" points="57.43,244.48 57.54,243.04 1334.23,277.78 1334.23,279.1 		"/>
		<polygon class="st141" points="57.43,243.59 57.54,242.16 1334.34,276.79 1334.23,278.22 		"/>
		<polygon class="st142" points="57.54,242.6 57.54,241.28 1334.34,275.91 1334.34,277.23 		"/>
		<polygon class="st142" points="57.54,241.72 57.54,240.29 1334.34,275.02 1334.34,276.35 		"/>
		<polygon class="st143" points="57.54,240.84 57.54,239.4 1334.34,274.03 1334.34,275.46 		"/>
		<polygon class="st143" points="57.54,239.84 57.65,238.52 1334.45,273.15 1334.34,274.47 		"/>
		<polygon class="st143" points="57.65,238.96 57.65,237.53 1334.45,272.27 1334.34,273.59 		"/>
		<polygon class="st144" points="57.65,238.08 57.65,236.65 1334.45,271.27 1334.45,272.71 		"/>
		<polygon class="st144" points="57.65,237.09 57.65,235.76 1334.45,270.39 1334.45,271.82 		"/>
		<polygon class="st144" points="57.65,236.21 57.76,234.77 1334.45,269.51 1334.45,270.83 		"/>
		<polygon class="st145" points="57.76,235.32 57.76,233.89 1334.56,268.52 1334.45,269.95 		"/>
		<polygon class="st145" points="57.76,234.33 57.76,233.01 1334.56,267.63 1334.56,269.07 		"/>
		<polygon class="st146" points="57.76,233.45 57.76,232.01 1334.56,266.75 1334.56,268.08 		"/>
		<polygon class="st147" points="57.76,232.57 57.87,231.13 1334.56,265.76 1334.56,267.19 		"/>
		<polygon class="st147" points="57.76,231.57 57.87,230.25 1334.67,264.88 1334.56,266.31 		"/>
		<polygon class="st148" points="57.87,230.69 57.87,229.26 1334.67,264 1334.56,265.32 		"/>
		<polygon class="st148" points="57.87,229.81 57.87,228.38 1334.67,263 1334.67,264.44 		"/>
		<polygon class="st148" points="57.87,228.82 57.87,227.49 1334.67,262.12 1334.67,263.55 		"/>
		<polygon class="st149" points="57.87,227.93 57.98,226.5 1334.67,261.24 1334.67,262.56 		"/>
		<polygon class="st149" points="57.98,227.05 57.98,225.62 1334.78,260.25 1334.67,261.68 		"/>
		<polygon class="st149" points="57.98,226.06 57.98,224.74 1334.78,259.36 1334.78,260.8 		"/>
		<polygon class="st150" points="57.98,225.18 57.98,223.85 1334.78,258.48 1334.78,259.8 		"/>
		<polygon class="st150" points="57.98,224.29 58.09,222.86 1334.78,257.49 1334.78,258.92 		"/>
		<polygon class="st150" points="57.98,223.3 58.09,221.98 1334.89,256.61 1334.78,258.04 		"/>
		<polygon class="st151" points="58.09,222.42 58.09,221.1 1334.89,255.72 1334.78,257.05 		"/>
		<polygon class="st151" points="58.09,221.54 58.09,220.1 1334.89,254.73 1334.89,256.17 		"/>
		<polygon class="st152" points="58.09,220.55 58.09,219.22 1334.89,253.85 1334.89,255.28 		"/>
		<polygon class="st153" points="58.09,219.66 58.2,218.34 1335,252.97 1334.89,254.29 		"/>
		<polygon class="st153" points="58.2,218.78 58.2,217.35 1335,251.97 1334.89,253.41 		"/>
		<polygon class="st154" points="58.2,217.79 58.2,218.23 1335,252.97 1335,252.53 		"/>
	</g>
	<g>
		<defs>
			<path id="SVGID_3_" d="M296.51,441.98c-52.38-6.18-92.96-50.73-92.96-104.76c0-8.49,0.99-16.76,2.87-24.59h-25.25l-21.95,108.95
				H84.89l21.72-108.95H56.43l12.02-59.66h172.03l-0.99,4.96c18.53-16.32,42.9-26.14,69.48-26.14c47.53,0,87.67,31.43,100.9,74.66
				l10.7-53.48h147.66c5.73,0,11.25,1.21,16.32,3.64c4.85,2.43,9.04,5.73,12.46,9.93c3.2,4.08,5.51,8.71,6.95,13.78
				c0.88,3.2,1.32,6.4,1.32,9.7l1.43-7.17c1.65-8.71,6.07-16.21,13.01-21.72c6.73-5.4,14.67-8.16,23.38-8.16h98.48
				c5.62,0,11.14,1.21,16.21,3.64c4.96,2.43,9.15,5.73,12.57,9.93c3.2,4.08,5.51,8.71,6.95,13.78c1.21,4.3,1.54,8.71,0.99,13.12
				l2.1-10.59c1.65-8.71,5.96-16.1,12.79-21.61c6.73-5.51,14.78-8.27,23.49-8.27h103.22c5.62,0,11.03,1.21,16.1,3.64
				c4.85,2.43,9.04,5.62,12.46,9.81c3.42,4.08,5.73,8.82,7.17,13.9c0.77,2.65,1.21,5.29,1.32,8.05l1.1-5.51
				c1.65-8.71,5.96-16.1,12.79-21.61c6.73-5.51,14.67-8.27,23.38-8.27h103.33c5.51,0,11.03,1.21,15.99,3.64
				c4.85,2.43,9.04,5.62,12.46,9.81c3.42,4.08,5.84,8.82,7.28,13.9c1.54,5.51,1.54,11.25,0.33,16.87l-18.86,94.62
				c-1.65,8.71-5.96,16.1-12.9,21.61c-6.73,5.4-14.78,8.16-23.38,8.16H975.38c-5.73,0-11.25-1.21-16.32-3.64
				c-4.85-2.43-9.15-5.73-12.46-10.04c-3.31-4.08-5.62-8.82-6.95-13.9c-1.32-4.41-1.65-8.93-1.21-13.45l-2.21,11.14
				c-1.65,8.71-5.96,16.1-12.79,21.61c-6.73,5.51-14.67,8.27-23.38,8.27H794.31c-5.18,0-10.15-1.1-14.78-3.31
				c-4.63-2.21-8.6-5.29-11.8-9.26c-3.09-3.86-5.29-8.16-6.51-12.9c-0.99-3.64-1.32-7.5-0.99-11.36l-7.39,36.83h-69.7l8.05-40.14
				h-34.41l-8.05,40.14H515.19l-18.09-40.14h-32.42l-8.16,40.14h-69.7l3.42-17.2c-19.3,23.38-48.52,38.38-81.28,38.38
				C304.67,442.76,300.81,442.32,296.51,441.98L296.51,441.98z M949.14,326.85h-68.92l2.98-14.23h-39.04l-9.81,49.29h38.16
				l2.87-14.23h69.59L949.14,326.85z M591.61,358.5c-2.21,5.62-5.84,10.48-10.59,14.45c-3.97,3.2-8.16,5.51-12.79,6.95l13.23,29.44
				L591.61,358.5z M529.97,321.56l1.76-8.93h-53.48l-1.76,8.93H529.97z M703.22,321.56l1.76-8.93h-34.52l-1.76,8.93H703.22z
				 M1021.81,312.63l-9.92,49.29h39.26l9.81-49.29H1021.81z M1194.51,363.47l-11.58,58.12h-69.81l33.75-168.62h95.28l11.58,57.79
				l11.47-57.79H1335l-33.75,168.62h-95.06L1194.51,363.47z"/>
		</defs>
		<clipPath id="SVGID_4_">
			<use xlink:href="#SVGID_3_"  style="overflow:visible;"/>
		</clipPath>
		<polygon class="st155" points="57.21,444.52 57.21,444.08 1336.1,435.81 1336.1,436.25 		"/>
		<polygon class="st156" points="57.21,444.41 57.21,443.2 1336.1,434.93 1336.1,436.14 		"/>
		<polygon class="st156" points="57.21,443.64 57.21,442.43 1336.1,434.15 1336.1,435.37 		"/>
		<polygon class="st156" points="57.21,442.76 57.21,441.54 1336.1,433.27 1336.1,434.49 		"/>
		<polygon class="st156" points="57.21,441.98 57.21,440.77 1336.1,432.5 1336.1,433.71 		"/>
		<polygon class="st156" points="57.21,441.1 57.21,439.89 1336.1,431.62 1336.1,432.83 		"/>
		<polygon class="st157" points="57.21,440.33 57.21,439.12 1336.1,430.85 1336.1,432.06 		"/>
		<polygon class="st157" points="57.21,439.56 57.21,438.23 1336.1,429.96 1336.1,431.18 		"/>
		<polygon class="st157" points="57.21,438.68 57.21,437.46 1336.1,429.19 1336.1,430.41 		"/>
		<polygon class="st157" points="57.21,437.9 57.21,436.58 1336.1,428.31 1336.1,429.63 		"/>
		<polygon class="st157" points="57.21,437.02 57.21,435.81 1336.1,427.54 1336.1,428.75 		"/>
		<polygon class="st158" points="57.21,436.25 57.21,434.93 1336.1,426.66 1336.1,427.98 		"/>
		<polygon class="st158" points="57.21,435.37 57.21,434.15 1336.1,425.88 1336.1,427.1 		"/>
		<polygon class="st158" points="57.21,434.6 57.21,433.27 1336.1,425 1336.1,426.32 		"/>
		<polygon class="st158" points="57.21,433.71 57.21,432.5 1336.1,424.23 1336.1,425.44 		"/>
		<polygon class="st158" points="57.21,432.94 57.21,431.62 1336.1,423.35 1336.1,424.67 		"/>
		<polygon class="st158" points="57.21,432.06 57.21,430.85 1335.99,422.58 1336.1,423.79 		"/>
		<polygon class="st159" points="57.21,431.29 57.21,430.07 1335.99,421.8 1335.99,423.02 		"/>
		<polygon class="st159" points="57.21,430.41 57.1,429.19 1335.99,420.92 1335.99,422.13 		"/>
		<polygon class="st159" points="57.21,429.63 57.1,428.42 1335.99,420.15 1335.99,421.36 		"/>
		<polygon class="st159" points="57.1,428.75 57.1,427.54 1335.99,419.27 1335.99,420.48 		"/>
		<polygon class="st159" points="57.1,427.98 57.1,426.77 1335.99,418.5 1335.99,419.71 		"/>
		<polygon class="st160" points="57.1,427.1 57.1,425.88 1335.99,417.61 1335.99,418.83 		"/>
		<polygon class="st160" points="57.1,426.32 57.1,425.11 1335.99,416.84 1335.99,418.05 		"/>
		<polygon class="st160" points="57.1,425.44 57.1,424.23 1335.99,415.96 1335.99,417.17 		"/>
		<polygon class="st160" points="57.1,424.67 57.1,423.46 1335.99,415.19 1335.99,416.4 		"/>
		<polygon class="st160" points="57.1,423.79 57.1,422.58 1335.99,414.3 1335.99,415.52 		"/>
		<polygon class="st161" points="57.1,423.02 57.1,421.8 1335.99,413.53 1335.99,414.75 		"/>
		<polygon class="st161" points="57.1,422.24 57.1,420.92 1335.99,412.65 1335.99,413.86 		"/>
		<polygon class="st161" points="57.1,421.36 57.1,420.15 1335.99,411.88 1335.99,413.09 		"/>
		<polygon class="st161" points="57.1,420.59 57.1,419.27 1335.99,411 1335.99,412.32 		"/>
		<polygon class="st161" points="57.1,419.71 57.1,418.5 1335.99,410.22 1335.99,411.44 		"/>
		<polygon class="st162" points="57.1,418.94 57.1,417.61 1335.99,409.34 1335.99,410.67 		"/>
		<polygon class="st162" points="57.1,418.05 57.1,416.84 1335.99,408.57 1335.99,409.78 		"/>
		<polygon class="st162" points="57.1,417.28 57.1,415.96 1335.99,407.69 1335.99,409.01 		"/>
		<polygon class="st162" points="57.1,416.4 57.1,415.19 1335.99,406.92 1335.99,408.13 		"/>
		<polygon class="st162" points="57.1,415.63 57.1,414.3 1335.88,406.03 1335.99,407.36 		"/>
		<polygon class="st163" points="57.1,414.75 57.1,413.53 1335.88,405.26 1335.99,406.47 		"/>
		<polygon class="st163" points="57.1,413.97 57.1,412.76 1335.88,404.49 1335.88,405.7 		"/>
		<polygon class="st163" points="57.1,413.09 56.99,411.88 1335.88,403.61 1335.88,404.82 		"/>
		<polygon class="st163" points="56.99,412.32 56.99,411.11 1335.88,402.84 1335.88,404.05 		"/>
		<polygon class="st163" points="56.99,411.44 56.99,410.22 1335.88,401.95 1335.88,403.17 		"/>
		<polygon class="st163" points="56.99,410.67 56.99,409.45 1335.88,401.18 1335.88,402.39 		"/>
		<polygon class="st164" points="56.99,409.78 56.99,408.57 1335.88,400.3 1335.88,401.51 		"/>
		<polygon class="st164" points="56.99,409.01 56.99,407.8 1335.88,399.53 1335.88,400.74 		"/>
		<polygon class="st164" points="56.99,408.13 56.99,406.92 1335.88,398.64 1335.88,399.86 		"/>
		<polygon class="st164" points="56.99,407.36 56.99,406.14 1335.88,397.87 1335.88,399.09 		"/>
		<polygon class="st164" points="56.99,406.47 56.99,405.26 1335.88,396.99 1335.88,398.2 		"/>
		<polygon class="st165" points="56.99,405.7 56.99,404.49 1335.88,396.22 1335.88,397.43 		"/>
		<polygon class="st165" points="56.99,404.93 56.99,403.61 1335.88,395.34 1335.88,396.55 		"/>
		<polygon class="st165" points="56.99,404.05 56.99,402.84 1335.88,394.56 1335.88,395.78 		"/>
		<polygon class="st165" points="56.99,403.28 56.99,401.95 1335.88,393.68 1335.88,395.01 		"/>
		<polygon class="st165" points="56.99,402.39 56.99,401.18 1335.88,392.91 1335.88,394.12 		"/>
		<polygon class="st166" points="56.99,401.62 56.99,400.3 1335.88,392.03 1335.88,393.35 		"/>
		<polygon class="st166" points="56.99,400.74 56.99,399.53 1335.88,391.26 1335.88,392.47 		"/>
		<polygon class="st166" points="56.99,399.97 56.99,398.64 1335.88,390.37 1335.88,391.7 		"/>
		<polygon class="st166" points="56.99,399.09 56.99,397.87 1335.88,389.6 1335.88,390.82 		"/>
		<polygon class="st166" points="56.99,398.31 56.99,396.99 1335.77,388.72 1335.88,390.04 		"/>
		<polygon class="st167" points="56.99,397.43 56.99,396.22 1335.77,387.95 1335.77,389.16 		"/>
		<polygon class="st167" points="56.99,396.66 56.99,395.45 1335.77,387.18 1335.77,388.39 		"/>
		<polygon class="st167" points="56.99,395.78 56.87,394.56 1335.77,386.29 1335.77,387.51 		"/>
		<polygon class="st167" points="56.87,395.01 56.87,393.79 1335.77,385.52 1335.77,386.73 		"/>
		<polygon class="st167" points="56.87,394.12 56.87,392.91 1335.77,384.64 1335.77,385.85 		"/>
		<polygon class="st168" points="56.87,393.35 56.87,392.14 1335.77,383.87 1335.77,385.08 		"/>
		<polygon class="st168" points="56.87,392.47 56.87,391.26 1335.77,382.99 1335.77,384.2 		"/>
		<polygon class="st168" points="56.87,391.7 56.87,390.48 1335.77,382.21 1335.77,383.43 		"/>
		<polygon class="st168" points="56.87,390.82 56.87,389.6 1335.77,381.33 1335.77,382.54 		"/>
		<polygon class="st168" points="56.87,390.04 56.87,388.83 1335.77,380.56 1335.77,381.77 		"/>
		<polygon class="st169" points="56.87,389.16 56.87,387.95 1335.77,379.68 1335.77,380.89 		"/>
		<polygon class="st169" points="56.87,388.39 56.87,387.18 1335.77,378.91 1335.77,380.12 		"/>
		<polygon class="st169" points="56.87,387.62 56.87,386.29 1335.77,378.02 1335.77,379.24 		"/>
		<polygon class="st169" points="56.87,386.73 56.87,385.52 1335.77,377.25 1335.77,378.46 		"/>
		<polygon class="st169" points="56.87,385.96 56.87,384.64 1335.77,376.37 1335.77,377.69 		"/>
		<polygon class="st169" points="56.87,385.08 56.87,383.87 1335.77,375.6 1335.77,376.81 		"/>
		<polygon class="st170" points="56.87,384.31 56.87,382.99 1335.77,374.71 1335.77,376.04 		"/>
		<polygon class="st170" points="56.87,383.43 56.87,382.21 1335.77,373.94 1335.77,375.16 		"/>
		<polygon class="st170" points="56.87,382.65 56.87,381.33 1335.77,373.06 1335.77,374.38 		"/>
		<polygon class="st170" points="56.87,381.77 56.87,380.56 1335.77,372.29 1335.77,373.5 		"/>
		<polygon class="st170" points="56.87,381 56.87,379.68 1335.66,371.41 1335.77,372.73 		"/>
		<polygon class="st171" points="56.87,380.12 56.87,378.91 1335.66,370.63 1335.66,371.85 		"/>
		<polygon class="st171" points="56.87,379.35 56.76,378.13 1335.66,369.86 1335.66,371.08 		"/>
		<polygon class="st171" points="56.87,378.46 56.76,377.25 1335.66,368.98 1335.66,370.19 		"/>
		<polygon class="st171" points="56.76,377.69 56.76,376.48 1335.66,368.21 1335.66,369.42 		"/>
		<polygon class="st171" points="56.76,376.81 56.76,375.6 1335.66,367.33 1335.66,368.54 		"/>
		<polygon class="st172" points="56.76,376.04 56.76,374.82 1335.66,366.55 1335.66,367.77 		"/>
		<polygon class="st172" points="56.76,375.16 56.76,373.94 1335.66,365.67 1335.66,366.88 		"/>
		<polygon class="st172" points="56.76,374.38 56.76,373.17 1335.66,364.9 1335.66,366.11 		"/>
		<polygon class="st172" points="56.76,373.5 56.76,372.29 1335.66,364.02 1335.66,365.23 		"/>
		<polygon class="st172" points="56.76,372.73 56.76,371.52 1335.66,363.25 1335.66,364.46 		"/>
		<polygon class="st173" points="56.76,371.85 56.76,370.63 1335.66,362.36 1335.66,363.58 		"/>
		<polygon class="st173" points="56.76,371.08 56.76,369.86 1335.66,361.59 1335.66,362.8 		"/>
		<polygon class="st173" points="56.76,370.3 56.76,368.98 1335.66,360.71 1335.66,361.92 		"/>
		<polygon class="st173" points="56.76,369.42 56.76,368.21 1335.66,359.94 1335.66,361.15 		"/>
		<polygon class="st173" points="56.76,368.65 56.76,367.33 1335.66,359.06 1335.66,360.38 		"/>
		<polygon class="st174" points="56.76,367.77 56.76,366.55 1335.66,358.28 1335.66,359.5 		"/>
		<polygon class="st174" points="56.76,367 56.76,365.67 1335.66,357.4 1335.66,358.72 		"/>
		<polygon class="st174" points="56.76,366.11 56.76,364.9 1335.66,356.63 1335.66,357.84 		"/>
		<polygon class="st174" points="56.76,365.34 56.76,364.02 1335.66,355.75 1335.66,357.07 		"/>
		<polygon class="st174" points="56.76,364.46 56.76,363.25 1335.55,354.97 1335.66,356.19 		"/>
		<polygon class="st174" points="56.76,363.69 56.76,362.36 1335.55,354.09 1335.66,355.42 		"/>
		<polygon class="st175" points="56.76,362.8 56.76,361.59 1335.55,353.32 1335.55,354.53 		"/>
		<polygon class="st175" points="56.76,362.03 56.65,360.82 1335.55,352.55 1335.55,353.76 		"/>
		<polygon class="st175" points="56.65,361.15 56.65,359.94 1335.55,351.67 1335.55,352.88 		"/>
		<polygon class="st175" points="56.65,360.38 56.65,359.17 1335.55,350.89 1335.55,352.11 		"/>
		<polygon class="st175" points="56.65,359.5 56.65,358.28 1335.55,350.01 1335.55,351.23 		"/>
		<polygon class="st176" points="56.65,358.72 56.65,357.51 1335.55,349.24 1335.55,350.45 		"/>
		<polygon class="st176" points="56.65,357.84 56.65,356.63 1335.55,348.36 1335.55,349.57 		"/>
		<polygon class="st176" points="56.65,357.07 56.65,355.86 1335.55,347.59 1335.55,348.8 		"/>
		<polygon class="st176" points="56.65,356.19 56.65,354.97 1335.55,346.7 1335.55,347.92 		"/>
		<polygon class="st176" points="56.65,355.42 56.65,354.2 1335.55,345.93 1335.55,347.15 		"/>
		<polygon class="st177" points="56.65,354.53 56.65,353.32 1335.55,345.05 1335.55,346.26 		"/>
		<polygon class="st177" points="56.65,353.76 56.65,352.55 1335.55,344.28 1335.55,345.49 		"/>
		<polygon class="st177" points="56.65,352.99 56.65,351.67 1335.55,343.4 1335.55,344.61 		"/>
		<polygon class="st177" points="56.65,352.11 56.65,350.89 1335.55,342.62 1335.55,343.84 		"/>
		<polygon class="st177" points="56.65,351.34 56.65,350.01 1335.55,341.74 1335.55,343.06 		"/>
		<polygon class="st178" points="56.65,350.45 56.65,349.24 1335.55,340.97 1335.55,342.18 		"/>
		<polygon class="st178" points="56.65,349.68 56.65,348.36 1335.55,340.09 1335.55,341.41 		"/>
		<polygon class="st178" points="56.65,348.8 56.65,347.59 1335.55,339.32 1335.55,340.53 		"/>
		<polygon class="st178" points="56.65,348.03 56.65,346.7 1335.55,338.43 1335.55,339.76 		"/>
		<polygon class="st178" points="56.65,347.15 56.65,345.93 1335.44,337.66 1335.55,338.87 		"/>
		<polygon class="st179" points="56.65,346.37 56.65,345.05 1335.44,336.78 1335.44,338.1 		"/>
		<polygon class="st179" points="56.65,345.49 56.65,344.28 1335.44,336.01 1335.44,337.22 		"/>
		<polygon class="st179" points="56.65,344.72 56.54,343.51 1335.44,335.23 1335.44,336.45 		"/>
		<polygon class="st179" points="56.54,343.84 56.54,342.62 1335.44,334.35 1335.44,335.57 		"/>
		<polygon class="st179" points="56.54,343.06 56.54,341.85 1335.44,333.58 1335.44,334.79 		"/>
		<polygon class="st180" points="56.54,342.18 56.54,340.97 1335.44,332.7 1335.44,333.91 		"/>
		<polygon class="st180" points="56.54,341.41 56.54,340.2 1335.44,331.93 1335.44,333.14 		"/>
		<polygon class="st180" points="56.54,340.53 56.54,339.32 1335.44,331.04 1335.44,332.26 		"/>
		<polygon class="st180" points="56.54,339.76 56.54,338.54 1335.44,330.27 1335.44,331.49 		"/>
		<polygon class="st180" points="56.54,338.87 56.54,337.66 1335.44,329.39 1335.44,330.6 		"/>
		<polygon class="st180" points="56.54,338.1 56.54,336.89 1335.44,328.62 1335.44,329.83 		"/>
		<polygon class="st181" points="56.54,337.22 56.54,336.01 1335.44,327.74 1335.44,328.95 		"/>
		<polygon class="st181" points="56.54,336.45 56.54,335.23 1335.44,326.96 1335.44,328.18 		"/>
		<polygon class="st181" points="56.54,335.68 56.54,334.35 1335.44,326.08 1335.44,327.29 		"/>
		<polygon class="st181" points="56.54,334.79 56.54,333.58 1335.44,325.31 1335.44,326.52 		"/>
		<polygon class="st181" points="56.54,334.02 56.54,332.7 1335.44,324.43 1335.44,325.75 		"/>
		<polygon class="st182" points="56.54,333.14 56.54,331.93 1335.44,323.66 1335.44,324.87 		"/>
		<polygon class="st182" points="56.54,332.37 56.54,331.04 1335.44,322.77 1335.44,324.1 		"/>
		<polygon class="st182" points="56.54,331.49 56.54,330.27 1335.44,322 1335.44,323.21 		"/>
		<polygon class="st182" points="56.54,330.71 56.54,329.39 1335.44,321.12 1335.44,322.44 		"/>
		<polygon class="st182" points="56.54,329.83 56.54,328.62 1335.33,320.35 1335.44,321.56 		"/>
		<polygon class="st183" points="56.54,329.06 56.54,327.74 1335.33,319.47 1335.33,320.79 		"/>
		<polygon class="st183" points="56.54,328.18 56.43,326.96 1335.33,318.69 1335.33,319.91 		"/>
		<polygon class="st183" points="56.54,327.41 56.43,326.19 1335.33,317.92 1335.33,319.13 		"/>
		<polygon class="st183" points="56.43,326.52 56.43,325.31 1335.33,317.04 1335.33,318.25 		"/>
		<polygon class="st183" points="56.43,325.75 56.43,324.54 1335.33,316.27 1335.33,317.48 		"/>
		<polygon class="st184" points="56.43,324.87 56.43,323.66 1335.33,315.38 1335.33,316.6 		"/>
		<polygon class="st184" points="56.43,324.1 56.43,322.88 1335.33,314.61 1335.33,315.83 		"/>
		<polygon class="st184" points="56.43,323.21 56.43,322 1335.33,313.73 1335.33,314.94 		"/>
		<polygon class="st184" points="56.43,322.44 56.43,321.23 1335.33,312.96 1335.33,314.17 		"/>
		<polygon class="st184" points="56.43,321.56 56.43,320.35 1335.33,312.08 1335.33,313.29 		"/>
		<polygon class="st185" points="56.43,320.79 56.43,319.58 1335.33,311.3 1335.33,312.52 		"/>
		<polygon class="st185" points="56.43,319.91 56.43,318.69 1335.33,310.42 1335.33,311.64 		"/>
		<polygon class="st185" points="56.43,319.13 56.43,317.92 1335.33,309.65 1335.33,310.86 		"/>
		<polygon class="st185" points="56.43,318.36 56.43,317.04 1335.33,308.77 1335.33,309.98 		"/>
		<polygon class="st185" points="56.43,317.48 56.43,316.27 1335.33,308 1335.33,309.21 		"/>
		<polygon class="st185" points="56.43,316.71 56.43,315.38 1335.33,307.11 1335.33,308.44 		"/>
		<polygon class="st186" points="56.43,315.83 56.43,314.61 1335.33,306.34 1335.33,307.56 		"/>
		<polygon class="st186" points="56.43,315.05 56.43,313.73 1335.33,305.46 1335.33,306.78 		"/>
		<polygon class="st186" points="56.43,314.17 56.43,312.96 1335.33,304.69 1335.33,305.9 		"/>
		<polygon class="st187" points="56.43,313.4 56.43,312.08 1335.22,303.81 1335.33,305.13 		"/>
		<polygon class="st187" points="56.43,312.52 56.43,311.3 1335.22,303.03 1335.33,304.25 		"/>
		<polygon class="st187" points="56.43,311.75 56.43,310.42 1335.22,302.15 1335.22,303.47 		"/>
		<polygon class="st188" points="56.43,310.86 56.32,309.65 1335.22,301.38 1335.22,302.59 		"/>
		<polygon class="st188" points="56.32,310.09 56.32,308.88 1335.22,300.61 1335.22,301.82 		"/>
		<polygon class="st188" points="56.32,309.21 56.32,308 1335.22,299.73 1335.22,300.94 		"/>
		<polygon class="st189" points="56.32,308.44 56.32,307.22 1335.22,298.95 1335.22,300.17 		"/>
		<polygon class="st189" points="56.32,307.56 56.32,306.34 1335.22,298.07 1335.22,299.28 		"/>
		<polygon class="st189" points="56.32,306.78 56.32,305.57 1335.22,297.3 1335.22,298.51 		"/>
		<polygon class="st190" points="56.32,305.9 56.32,304.69 1335.22,296.42 1335.22,297.63 		"/>
		<polygon class="st190" points="56.32,305.13 56.32,303.92 1335.22,295.65 1335.22,296.86 		"/>
		<polygon class="st190" points="56.32,304.25 56.32,303.03 1335.22,294.76 1335.22,295.98 		"/>
		<polygon class="st191" points="56.32,303.47 56.32,302.26 1335.22,293.99 1335.22,295.2 		"/>
		<polygon class="st191" points="56.32,302.59 56.32,301.38 1335.22,293.11 1335.22,294.32 		"/>
		<polygon class="st191" points="56.32,301.82 56.32,300.61 1335.22,292.34 1335.22,293.55 		"/>
		<polygon class="st191" points="56.32,301.05 56.32,299.73 1335.22,291.45 1335.22,292.67 		"/>
		<polygon class="st192" points="56.32,300.17 56.32,298.95 1335.22,290.68 1335.22,291.9 		"/>
		<polygon class="st192" points="56.32,299.39 56.32,298.07 1335.22,289.8 1335.22,291.12 		"/>
		<polygon class="st192" points="56.32,298.51 56.32,297.3 1335.22,289.03 1335.22,290.24 		"/>
		<polygon class="st193" points="56.32,297.74 56.32,296.42 1335.22,288.15 1335.22,289.47 		"/>
		<polygon class="st193" points="56.32,296.86 56.32,295.65 1335.22,287.37 1335.22,288.59 		"/>
		<polygon class="st193" points="56.32,296.09 56.32,294.76 1335.11,286.49 1335.22,287.82 		"/>
		<polygon class="st194" points="56.32,295.2 56.32,293.99 1335.11,285.72 1335.22,286.93 		"/>
		<polygon class="st194" points="56.32,294.43 56.32,293.11 1335.11,284.84 1335.11,286.16 		"/>
		<polygon class="st194" points="56.32,293.55 56.21,292.34 1335.11,284.07 1335.11,285.28 		"/>
		<polygon class="st195" points="56.21,292.78 56.21,291.56 1335.11,283.29 1335.11,284.51 		"/>
		<polygon class="st195" points="56.21,291.9 56.21,290.68 1335.11,282.41 1335.11,283.62 		"/>
		<polygon class="st195" points="56.21,291.12 56.21,289.91 1335.11,281.64 1335.11,282.85 		"/>
		<polygon class="st196" points="56.21,290.24 56.21,289.03 1335.11,280.76 1335.11,281.97 		"/>
		<polygon class="st196" points="56.21,289.47 56.21,288.26 1335.11,279.99 1335.11,281.2 		"/>
		<polygon class="st196" points="56.21,288.59 56.21,287.37 1335.11,279.1 1335.11,280.32 		"/>
		<polygon class="st196" points="56.21,287.82 56.21,286.6 1335.11,278.33 1335.11,279.54 		"/>
		<polygon class="st197" points="56.21,286.93 56.21,285.72 1335.11,277.45 1335.11,278.66 		"/>
		<polygon class="st197" points="56.21,286.16 56.21,284.95 1335.11,276.68 1335.11,277.89 		"/>
		<polygon class="st197" points="56.21,285.28 56.21,284.07 1335.11,275.79 1335.11,277.01 		"/>
		<polygon class="st198" points="56.21,284.51 56.21,283.29 1335.11,275.02 1335.11,276.24 		"/>
		<polygon class="st198" points="56.21,283.74 56.21,282.41 1335.11,274.14 1335.11,275.35 		"/>
		<polygon class="st198" points="56.21,282.85 56.21,281.64 1335.11,273.37 1335.11,274.58 		"/>
		<polygon class="st199" points="56.21,282.08 56.21,280.76 1335.11,272.49 1335.11,273.81 		"/>
		<polygon class="st199" points="56.21,281.2 56.21,279.99 1335.11,271.71 1335.11,272.93 		"/>
		<polygon class="st199" points="56.21,280.43 56.21,279.1 1335.11,270.83 1335.11,272.16 		"/>
		<polygon class="st200" points="56.21,279.54 56.21,278.33 1335.11,270.06 1335.11,271.27 		"/>
		<polygon class="st200" points="56.21,278.77 56.21,277.45 1335,269.18 1335.11,270.5 		"/>
		<polygon class="st200" points="56.21,277.89 56.21,276.68 1335,268.41 1335,269.62 		"/>
		<polygon class="st201" points="56.21,277.12 56.1,275.79 1335,267.52 1335,268.85 		"/>
		<polygon class="st201" points="56.21,276.24 56.1,275.02 1335,266.75 1335,267.97 		"/>
		<polygon class="st201" points="56.1,275.46 56.1,274.25 1335,265.98 1335,267.19 		"/>
		<polygon class="st202" points="56.1,274.58 56.1,273.37 1335,265.1 1335,266.31 		"/>
		<polygon class="st202" points="56.1,273.81 56.1,272.6 1335,264.33 1335,265.54 		"/>
		<polygon class="st202" points="56.1,272.93 56.1,271.71 1335,263.44 1335,264.66 		"/>
		<polygon class="st202" points="56.1,272.16 56.1,270.94 1335,262.67 1335,263.88 		"/>
		<polygon class="st203" points="56.1,271.27 56.1,270.06 1335,261.79 1335,263 		"/>
		<polygon class="st203" points="56.1,270.5 56.1,269.29 1335,261.02 1335,262.23 		"/>
		<polygon class="st203" points="56.1,269.62 56.1,268.41 1335,260.14 1335,261.35 		"/>
		<polygon class="st204" points="56.1,268.85 56.1,267.63 1335,259.36 1335,260.58 		"/>
		<polygon class="st204" points="56.1,267.97 56.1,266.75 1335,258.48 1335,259.69 		"/>
		<polygon class="st204" points="56.1,267.19 56.1,265.98 1335,257.71 1335,258.92 		"/>
		<polygon class="st205" points="56.1,266.42 56.1,265.1 1335,256.83 1335,258.04 		"/>
		<polygon class="st205" points="56.1,265.54 56.1,264.33 1335,256.06 1335,257.27 		"/>
		<polygon class="st205" points="56.1,264.77 56.1,263.44 1335,255.17 1335,256.5 		"/>
		<polygon class="st206" points="56.1,263.88 56.1,262.67 1335,254.4 1335,255.61 		"/>
		<polygon class="st206" points="56.1,263.11 56.1,261.79 1335,253.52 1335,254.84 		"/>
		<polygon class="st206" points="56.1,262.23 56.1,261.02 1334.89,252.75 1335,253.96 		"/>
		<polygon class="st207" points="56.1,261.46 56.1,260.14 1334.89,251.86 1335,253.19 		"/>
		<polygon class="st207" points="56.1,260.58 56.1,259.36 1334.89,251.09 1334.89,252.31 		"/>
		<polygon class="st207" points="56.1,259.8 55.99,258.48 1334.89,250.21 1334.89,251.53 		"/>
		<polygon class="st208" points="55.99,258.92 55.99,257.71 1334.89,249.44 1334.89,250.65 		"/>
		<polygon class="st208" points="55.99,258.15 55.99,256.94 1334.89,248.67 1334.89,249.88 		"/>
		<polygon class="st208" points="55.99,257.27 55.99,256.06 1334.89,247.78 1334.89,249 		"/>
		<polygon class="st208" points="55.99,256.5 55.99,255.28 1334.89,247.01 1334.89,248.23 		"/>
		<polygon class="st209" points="55.99,255.61 55.99,254.4 1334.89,246.13 1334.89,247.34 		"/>
		<polygon class="st209" points="55.99,254.84 55.99,253.63 1334.89,245.36 1334.89,246.57 		"/>
		<polygon class="st209" points="55.99,253.96 55.99,252.75 1334.89,244.48 1334.89,245.69 		"/>
		<polygon class="st210" points="55.99,253.19 55.99,251.97 1334.89,243.7 1334.89,244.92 		"/>
		<polygon class="st210" points="55.99,252.31 55.99,251.09 1334.89,242.82 1334.89,244.03 		"/>
		<polygon class="st210" points="55.99,251.53 55.99,250.32 1334.89,242.05 1334.89,243.26 		"/>
		<polygon class="st211" points="55.99,250.65 55.99,249.44 1334.89,241.17 1334.89,242.38 		"/>
		<polygon class="st211" points="55.99,249.88 55.99,248.67 1334.89,240.4 1334.89,241.61 		"/>
		<polygon class="st211" points="55.99,249.11 55.99,247.78 1334.89,239.51 1334.89,240.73 		"/>
		<polygon class="st212" points="55.99,248.23 55.99,247.01 1334.89,238.74 1334.89,239.95 		"/>
		<polygon class="st212" points="55.99,247.45 55.99,246.13 1334.89,237.86 1334.89,239.18 		"/>
		<polygon class="st212" points="55.99,246.57 55.99,245.36 1334.89,237.09 1334.89,238.3 		"/>
		<polygon class="st213" points="55.99,245.8 55.99,244.48 1334.89,236.21 1334.89,237.53 		"/>
		<polygon class="st213" points="55.99,244.92 55.99,243.7 1334.78,235.43 1334.89,236.65 		"/>
		<polygon class="st213" points="55.99,244.15 55.99,242.82 1334.78,234.55 1334.89,235.87 		"/>
		<polygon class="st213" points="55.99,243.26 55.99,242.05 1334.78,233.78 1334.78,234.99 		"/>
		<polygon class="st214" points="55.99,242.49 55.88,241.17 1334.78,232.9 1334.78,234.22 		"/>
		<polygon class="st214" points="55.88,241.61 55.88,240.4 1334.78,232.12 1334.78,233.34 		"/>
		<polygon class="st214" points="55.88,240.84 55.88,239.62 1334.78,231.35 1334.78,232.57 		"/>
		<polygon class="st215" points="55.88,239.95 55.88,238.74 1334.78,230.47 1334.78,231.68 		"/>
		<polygon class="st215" points="55.88,239.18 55.88,237.97 1334.78,229.7 1334.78,230.91 		"/>
		<polygon class="st215" points="55.88,238.3 55.88,237.09 1334.78,228.82 1334.78,230.03 		"/>
		<polygon class="st216" points="55.88,237.53 55.88,236.32 1334.78,228.04 1334.78,229.26 		"/>
		<polygon class="st216" points="55.88,236.65 55.88,233.23 1334.78,224.96 1334.78,228.38 		"/>
	</g>
	<path class="st217" d="M79.37,266.2h144.91l-6.73,33.08H145.1l23.71,7.17L148.3,408.24h-47.2l21.72-108.95H72.64L79.37,266.2z
		 M505.71,368.1h-51.94l-8.16,40.14h-42.57l28.45-142.04h136.75c3.75,0,7.28,0.77,10.48,2.32c3.2,1.65,5.84,3.75,7.94,6.29
		c2.1,2.65,3.53,5.73,4.52,9.04c0.99,3.42,1.1,6.95,0.44,10.59l-11.03,54.59c-1.1,5.51-3.75,10.15-8.05,13.67
		c-4.41,3.64-9.37,5.4-15,5.4h-9.15l17.98,40.14h-42.57L505.71,368.1z M537.03,334.79c0.99,0,1.98-0.33,2.87-0.99
		c0.88-0.66,1.54-1.54,1.76-2.65l5.07-26.14c0.22-1.54,0-2.87-0.88-3.97c-0.88-1.21-2.1-1.76-3.64-1.76h-99.8l23.6,7.17l-5.73,28.34
		H537.03z M645.98,368.1l-8.16,40.14h-42.57l24.48-122.96c1.1-5.62,3.86-10.26,8.27-13.78s9.48-5.29,15.11-5.29h98.48
		c3.75,0,7.28,0.77,10.37,2.32c3.2,1.65,5.84,3.75,7.94,6.29c2.1,2.65,3.64,5.73,4.63,9.04c0.88,3.42,0.99,6.95,0.11,10.59
		l-22.72,113.81h-42.57l8.05-40.14H645.98z M714.13,334.79l5.95-29.78c0.22-1.54-0.11-2.87-1.1-3.97c-0.88-1.21-2.1-1.76-3.64-1.76
		h-80.72l23.49,7.17l-5.62,28.34H714.13z M808.09,299.28l23.82,7.17l-12.68,63.08c-0.22,1.43,0.11,2.76,1.1,3.97
		c0.88,1.1,2.1,1.65,3.64,1.65h55.58c2.43,0,3.97-1.21,4.63-3.75l2.1-10.37h42.57l-5.62,28.12c-1.1,5.73-3.86,10.37-8.16,13.9
		c-4.3,3.53-9.37,5.18-15,5.18H794.31c-3.2,0-6.29-0.66-9.15-1.99c-2.76-1.32-5.18-3.2-7.06-5.62c-1.87-2.32-3.31-4.96-4.08-7.94
		c-0.77-2.98-0.88-6.07-0.22-9.37l19.74-98.04c1.1-5.62,3.75-10.26,8.05-13.78c4.41-3.53,9.37-5.29,15.11-5.29h103.22
		c3.64,0,7.06,0.77,10.26,2.32c3.2,1.65,5.84,3.75,8.05,6.29c2.21,2.65,3.75,5.73,4.63,9.04c0.99,3.42,0.99,6.95,0.22,10.59
		l-3.86,19.08h-42.57l1.76-8.49c0.33-1.54,0-2.87-0.99-3.97c-0.99-1.21-2.21-1.76-3.64-1.76H808.09z M1097.57,266.2
		c3.64,0,7.06,0.77,10.15,2.32c3.2,1.65,5.95,3.75,8.05,6.29c2.21,2.65,3.75,5.73,4.74,9.04c0.88,3.42,0.99,6.95,0.11,10.59
		l-18.86,94.73c-1.1,5.73-3.75,10.37-8.16,13.9s-9.48,5.18-15.11,5.18H975.38c-3.86,0-7.28-0.77-10.48-2.32
		c-3.2-1.54-5.84-3.64-7.94-6.29c-2.1-2.65-3.64-5.62-4.52-9.15c-0.99-3.42-1.1-6.95-0.44-10.59l19.08-94.62
		c1.1-5.62,3.75-10.26,8.16-13.78c4.3-3.53,9.26-5.29,15-5.29H1097.57z M985.75,299.28l23.71,7.17l-12.57,63.08
		c-0.33,1.43,0,2.76,0.99,3.97c0.99,1.1,2.21,1.65,3.64,1.65h85.47l-23.6-7.06l12.57-63.08c0.33-1.54,0-2.87-0.99-3.97
		c-0.88-1.21-2.1-1.76-3.64-1.76H985.75z M1276.11,266.2h42.57l-28.34,142.04H1217l-22.5-112.37h-25.14l23.71,7.06l-21.06,105.32
		h-42.68l28.45-142.04h73.45l22.61,112.48L1276.11,266.2z"/>
	<path class="st218" d="M321.98,372.62c1.21-2.32,5.07-11.8,5.07-14.78c5.18-1.76,9.81-3.97,13.9-6.84
		c8.93,5.73,16.54,7.5,22.5,4.52c4.52-3.31,6.95-8.6,6.51-16.98c-0.99-2.65-2.54-4.74-5.62-7.39c0.88-2.32,1.32-5.4,1.21-9.15
		c-0.11-1.76-1.65-2.32-2.54,0c-1.32,2.98-2.98,5.07-4.96,6.18c-9.37-7.61-14.56-9.15-18.31-8.49c5.07-4.52,10.7-4.85,15.22-13.67
		c2.65,2.65,4.08,6.07,5.84,9.7c1.21,0.99,1.99,0.66,2.32-0.99c-0.11-4.63-1.76-8.93-5.29-12.9c0.99-0.77,1.65-1.76,1.98-2.98
		c0.88,1.54,2.54,2.1,3.2,3.75c2.54-4.52,2.65-10.59,0.99-15.44c0-1.99-0.55-3.97-1.21-5.96c0-3.09-0.66-5.4-2.54-6.18
		c-10.26-2.98-21.06-4.19-33.52-1.32c-9.37-1.43-15.77-6.18-28.12-4.19c-4.41,0.77-9.48,3.09-14.89,5.96
		c-22.94-0.88-61.98,50.51-39.59,68.92c-1.1,2.54-2.54,4.85-4.41,6.95c-0.77,1.54-1.1,2.98-0.88,4.41
		c1.43,1.32,11.69-0.44,17.53-0.66c8.38,6.73,10.37,15.33,14.45,22.94c17.75,24.81,88.44,11.8,109.62-21.06
		c-21.5,26.47-70.14,37.05-98.92,11.91c-3.09-6.4-6.62-12.79-12.79-19.96c1.43-0.33,2.87-0.77,4.08-1.32
		c2.54,1.65,5.84,2.1,9.59,1.99c-2.54-1.87-4.19-3.86-4.85-5.96c1.87-2.21,3.09-5.07,3.64-8.6c-12.57,10.37-22.17,16.87-30,15.11
		c-1.21-0.44-1.76-1.32-0.77-3.09c1.54-2.1,1.87-6.73,2.43-8.71c0.11-3.75-1.1-11.47-0.55-14.01c-0.22-0.66,0.77-4.3,2.43-8.71
		c0.77,4.08,2.21,7.06,4.41,9.04c-1.54-4.63-1.87-9.93-1.76-15.44c0.66-1.54,1.32-2.98,1.98-4.3c1.99,5.62,5.62,9.81,10.59,12.79
		c-2.65-5.51-4.08-12.35-3.53-21.28c4.52-3.31,7.72-5.96,10.7-8.05c1.43,6.62,3.86,11.03,6.95,14.34
		c-1.54-5.96-2.21-12.02-0.77-18.31c4.19-2.1,9.37-3.42,18.09-4.41c8.38-0.44,11.25,2.87,19.74,2.65
		c12.79-0.88,25.92-4.3,34.41-2.87c-1.65,2.21-1.76,4.08-0.77,5.62c-2.1,0.77-4.74,0.66-7.61,0c1.87,1.1,4.3,1.65,7.61,1.43
		c2.43-0.11,4.63-0.77,6.4,0c1.54,2.21,1.43,3.64,1.1,7.72c-0.55,0.77-1.99,1.43-3.97,1.87c-7.61,6.4-12.9,10.92-19.52,12.9
		c-1.87-0.11-3.86-0.88-5.84-3.2c1.1,4.74-1.21,11.8-8.27,22.5c0.22,2.65-0.22,5.96,1.54,8.93c1.21,2.21,4.41,3.97,6.18,6.4
		c1.99,2.1,3.2,3.2,6.07,4.74c-1.76,1.99-5.84,2.98-8.49,3.75c-4.3,0.88-6.62,0.99-7.72,0.55
		C323.86,360.71,322.65,368.98,321.98,372.62L321.98,372.62z M331.58,335.35c6.62,2.76,14.67,7.72,19.96,8.05
		c2.1-0.55,3.86-1.54,4.63-3.64c2.65-1.87,4.96-2.98,7.94-5.73c1.32,0.11,0.88,3.97,1.43,5.96c0.66-1.76,0.88-3.53,0.44-5.4
		c-0.11-1.32-0.99-1.98-2.65-1.65c-3.09-0.22-5.18-1.21-5.84-3.2c-6.51-6.07-12.68-8.93-18.75-8.93
		C335,323.44,332.79,328.62,331.58,335.35L331.58,335.35z M363.67,336.89c-3.09,1.87-5.18,4.3-7.61,7.06c1.1,1.65,3.53,2.76,6.73,0
		C363.01,342.29,364.55,338.65,363.67,336.89L363.67,336.89z"/>
	<path class="st218" d="M286.69,317.04c7.61-9.93,15.66-7.94,24.04,0.77c-1.21-3.09-2.65-6.18-5.29-9.7
		c0.55-1.87,1.32-3.64,3.2-5.07c6.18,1.54,9.37,0,9.04-5.96c0.44-0.88,2.21-1.76,4.63-2.54c-1.98-0.11-3.75,0.33-5.73,0.77
		c-1.99-0.77-3.64-1.1-5.96-0.33c-1.65,1.43-3.09,5.96-2.32,7.28c-1.99,1.21-3.64,3.2-4.52,5.18
		C292.76,306.23,289.34,311.3,286.69,317.04L286.69,317.04z M311.07,295.53c3.2,0.44,4.52,2.54,4.08,5.73
		c-1.21,1.21-3.2,1.65-5.62,1.32c-0.44-0.11-0.77-0.44-0.77-1.1C308.86,299.17,309.74,297.19,311.07,295.53L311.07,295.53z"/>
	<path class="st218" d="M284.16,343.62c2.76,7.72,4.19,15.33,2.87,22.83c8.16,5.4,16.21,6.73,24.15,4.63
		c3.86-4.41,6.18-11.25,7.83-19.3c-2.43,7.28-5.4,12.79-9.04,15.22c-9.15-0.66-15.33-3.09-17.75-7.28
		C290.22,352.77,287.58,347.37,284.16,343.62L284.16,343.62z"/>
	<path class="st218" d="M254.27,362.69c2.32,4.19,4.85,12.02,7.72,24.81c31.54,16.21,59.22,11.58,84.91,1.43
		c-29,21.39-60.1,20.73-92.41,5.84C256.04,384.42,256.04,373.72,254.27,362.69L254.27,362.69z"/>
	<path class="st218" d="M292.54,318.8c0.99,7.5,5.18,16.21,9.93,21.28c8.82-3.09,15.11-15.99,22.17-29.89
		c-3.97,16.98-10.37,30.55-20.73,38.6C294.41,347.92,292.21,335.35,292.54,318.8L292.54,318.8z"/>
	<path class="st218" d="M308.97,245.14c50.84,0,92.08,41.24,92.08,92.08c0,50.95-41.24,92.19-92.08,92.19
		c-50.95,0-92.19-41.24-92.19-92.19C216.78,286.38,258.02,245.14,308.97,245.14L308.97,245.14z M308.97,254.51
		c45.66,0,82.71,37.05,82.71,82.71c0,23.16-9.59,44.11-24.92,59.11l5.84,3.53h-9.59l0,0c-14.45,12.57-33.41,20.07-54.04,20.07
		c-45.66,0-82.71-36.94-82.71-82.71c0-19.3,6.62-37.16,17.75-51.28l-6.4-3.75h9.59l0,0C262.43,265.21,284.38,254.51,308.97,254.51
		L308.97,254.51z"/>
</g>
</svg>
